<?xml version="1.0" encoding="UTF-8"?>
<svg id="Capa_2" data-name="Capa 2" xmlns="http://www.w3.org/2000/svg" viewBox="0 0 18.9 24.83">
  <defs>
    <style>
      .cls-1 {
        fill: #e84c4f;
      }
    </style>
  </defs>
  <g id="capa1">
    <g>
      <path class="cls-1" d="M15.03,2.22c-.09.92-.17,1.87.02,2.78.06,2.62.28,2.51.52,5.12.06.67-.13,4.21-.09,4.88.13,2.09-.41,4.06,0,6.14,1.1,5.6-6.08,3.78-6.66,0-.2-1.34-.08-2.77-.07-4.1.01-1.62.04-3.14.11-4.75.08-2.02.38-3.98.52-5.97C9.77.48,1.1.68,0,.87l.74-.47L4.17.03h14.73c-2.57,0-3.73,1.32-3.87,2.19Z"/>
      <g>
        <g>
          <path d="M14.62,12.56s.01.02.02.03c0,0,0,0,.01,0,0,0-.04-.03-.03-.03Z"/>
          <path d="M14.85,13.65c.24-.41.02-.74-.22-1.06-.51.16-.62.46-.26.87.11.12.46.22.47.19Z"/>
          <path d="M11.86,19.75c-.18.28.1.2.18.15.2-.11.39-.27.58-.41-.09-.09-.2-.21-.22-.2-.2.14-.43.27-.55.46Z"/>
          <path d="M14.28,16.86c-.07,0-.19.2-.19.31-.01.21.1.4.34.36.1-.01.17-.17.24-.24-.05-.28-.17-.44-.38-.43Z"/>
          <path d="M12.04,17.91c.02-.12-.07-.27-.12-.41-.15.11-.31.22-.52.36.16.15.27.32.36.32.1,0,.25-.16.28-.27Z"/>
          <path d="M12.97,18.01c0,.21.19.21.3.1.1-.09.12-.26.18-.39-.08-.03-.16-.06-.27-.09-.07.12-.21.25-.21.38Z"/>
          <path d="M15.27,10.58c.3-.06.42-.24.41-.54,0-.27-.21-.37-.4-.36-.29.02-.44.21-.41.52.02.25.2.33.4.38Z"/>
          <path d="M14.14,14.42c-.12.11-.22.46-.19.47.41.24.74.02,1.06-.22-.16-.51-.46-.62-.87-.26Z"/>
          <path d="M15.04,14.66s-.02.01-.03.02c0,0,0,0,0,.01,0,0,.03-.04.03-.03Z"/>
          <path d="M14.98,16.59s.04.02.06.03c0-.03,0-.06-.01-.09,0,0-.05.05-.05.05Z"/>
          <path d="M15.05,16.62c.02.28-.28.68.3.73.11,0,.33-.13.35-.23.11-.57-.39-.37-.64-.49Z"/>
          <path d="M13.72,15.79c.01.1.17.17.24.24.28-.05.44-.17.43-.38,0-.07-.2-.19-.31-.19-.21-.01-.4.1-.36.34Z"/>
          <path d="M14.81,19.12c-.1.03-.23.19-.22.27.03.21.2.32.42.33.19,0,.23-.14.21-.29-.04-.22-.18-.36-.4-.3Z"/>
          <path d="M13.48,19.81c-.13.05-.13.15,0,.2.08.03.18,0,.27,0,.13-.07.13-.15,0-.2-.08-.03-.19-.03-.27,0Z"/>
        </g>
        <g>
          <path d="M12.56,19.75c.07-.18.04-.49-.21-.4-.31.11-.56.39-.82.61-.02.02.11.21.16.31.45.03.73-.16.87-.52Z"/>
          <path d="M15.35,19.95s0,.03,0,.04c0,0,0,0,.01,0,0,0-.02-.04-.02-.04Z"/>
          <path d="M15.08,21.04c.39-.26.35-.66.27-1.05-.53-.08-.76.14-.61.67.04.16.32.4.34.38Z"/>
          <path d="M12.35,18.36c.23.23.32-.04.45-.16.05-.21.09-.42-.15-.51-.23-.08-.39.07-.42.27-.02.13.03.31.12.4Z"/>
          <path d="M13.94,16.45c.1.04.32-.03.36-.11.05-.1-.04-.26-.08-.42-.18,0-.41-.04-.45.03-.12.19-.04.41.16.5Z"/>
          <path d="M13.15,23.67c-.06-.03-.25.09-.31.19-.1.18-.09.4.15.48.09.03.23-.08.32-.11.08-.27.04-.47-.15-.56Z"/>
          <path d="M13.49,18.82c.04-.08,0-.19,0-.28-.08.06-.18.11-.22.19-.04.08,0,.19,0,.3.08-.07.19-.13.22-.21Z"/>
          <path d="M13.62,19.9s0-.09,0-.13c-.06.05-.12.09-.17.15-.02.03,0,.09,0,.13.06-.05.11-.1.17-.15Z"/>
          <path d="M11.98,22.15c-.05.12-.11.32.12.31.11,0,.26-.12.32-.23.06-.12.03-.28.06-.65-.33.36-.44.45-.5.56Z"/>
          <path d="M14.09,21.41c-.16.04-.4.32-.38.34.26.39.66.35,1.05.27.08-.53-.14-.76-.67-.61Z"/>
          <path d="M14.8,22.02s-.03,0-.04,0c0,0,0,0,0,.01,0,0,.04-.02.04-.02Z"/>
          <path d="M15.23,18.26c.14.01.41.32.42-.07,0-.15-.21-.34-.37-.46-.07-.05-.25.04-.37.07-.05.3.12.44.32.46Z"/>
          <path d="M13.9,23.73s.03.04.04.06c.01-.03.02-.06.03-.08,0,0-.06.02-.06.03Z"/>
          <path d="M13.94,23.79c-.11.26-.56.49-.06.78.1.06.35.03.42-.06.35-.46-.19-.51-.36-.73Z"/>
          <path d="M13.11,22.45c-.03.09.08.23.11.32.27.08.47.04.56-.15.03-.06-.09-.25-.19-.31-.18-.1-.4-.09-.48.15Z"/>
          <path d="M14.86,23.23c-.12-.05-.32-.11-.31.12,0,.11.12.26.23.32.12.06.28.03.65.06-.36-.33-.45-.44-.56-.5Z"/>
          <path d="M13.92,17.62c.1-.05.21-.1.31-.15-.06-.08-.11-.21-.17-.21-.11,0-.23.06-.34.1.06.08.12.15.21.26Z"/>
          <path d="M14.77,20.01c-.36-.33-.45-.44-.56-.5-.12-.05-.32-.11-.31.12,0,.11.12.26.23.32.12.06.28.03.65.06Z"/>
        </g>
        <g>
          <path d="M12.92,19.18l-.06-.04s.03.05.05.07c0-.01,0-.02.01-.03Z"/>
          <path d="M13.32,20.55s.17-.07.19-.12c.09-.33-.14-.55-.31-.79-.1-.14-.19-.28-.28-.42-.05.18-.13.35-.12.53,0,.36.17.67.53.81Z"/>
          <path d="M14.27,18.14s.02-.04.02-.07c-.03,0-.06.01-.08.03,0,0,.06.04.06.04Z"/>
          <path d="M14.66,17.35c-.58,0-.29.45-.37.72.27-.07.72.15.66-.42-.01-.11-.19-.3-.29-.3Z"/>
          <path d="M14.99,18.77c-.05-.19-.18-.2-.33-.15-.21.08-.32.24-.22.45.04.09.23.19.31.17.2-.07.28-.25.24-.47Z"/>
          <path d="M11.95,18.71c.03.13.1.32.28.18.09-.07.14-.25.12-.37-.02-.13-.14-.24-.34-.55-.05.49-.09.63-.06.75Z"/>
          <path d="M14.86,14.53c-.08-.02-.17-.08-.23-.05-.05.02-.06.13-.08.21.07.05.15.1.22.15l.1-.3Z"/>
          <path d="M15.31,19.99c-.02.09,0,.2.05.27.08.12.17.1.2-.04.01-.08-.03-.18-.04-.26-.09-.11-.17-.1-.2.04Z"/>
          <path d="M11.55,19.68s-.02.02-.03.03c0,0,0,0,0,.01,0,0,.02-.04.02-.04Z"/>
          <path d="M13.08,23.17s.07.17.12.19c.33.09.55-.14.79-.31.14-.1.28-.19.42-.28-.18-.05-.35-.13-.53-.12-.36,0-.67.17-.81.53Z"/>
          <path d="M14.45,22.78l.04-.06s-.05.03-.07.05c.01,0,.02,0,.03.01Z"/>
          <path d="M13.46,18.22c-.11.04-.24.14-.26.22-.06.19.21.13.38.14.2-.06.4-.13.34-.27-.06-.13-.27-.15-.46-.08Z"/>
          <path d="M11.85,21.58s.04.02.07.02c0-.03-.01-.06-.03-.08,0,0-.04.06-.04.06Z"/>
          <path d="M11.92,21.6c.07.27-.15.72.42.66.11-.01.3-.19.3-.29,0-.58-.45-.29-.72-.37Z"/>
          <path d="M15.04,22.67c.03.08.23.09.53.21.06-.18.12-.35.18-.53-.14-.02-.29-.07-.41-.04-.18.04-.41.11-.3.37Z"/>
          <path d="M14.06,16.51c.02.1.21.24.3.22.1-.02.18-.19.29-.31-.11-.14-.21-.35-.29-.34-.22.02-.36.21-.3.43Z"/>
          <path d="M13.59,19.41c.02.1.2.22.32.22.13,0,.25-.12.38-.19-.14-.13-.27-.26-.45-.44-.12.19-.27.32-.25.41Z"/>
          <path d="M13.46,21.88c.11.08.28.07.42.1.01-.09.02-.17.04-.28-.14-.05-.29-.16-.41-.14-.2.04-.17.23-.05.32Z"/>
          <path d="M13.99,24.01c-.11.03-.21.15-.31.23.08.1.16.19.5.6.07-.35.12-.54.12-.72,0-.04-.22-.13-.31-.11Z"/>
          <path d="M12.33,20.61c-.13.03-.32.1-.18.28.07.09.25.14.37.12.13-.02.24-.14.55-.34-.49-.05-.63-.09-.75-.06Z"/>
          <path d="M15.44,21.49c-.08-.03-.18-.09-.25-.08-.07.02-.12.12-.18.18.08.03.17.07.25.11.06-.07.12-.14.18-.21Z"/>
          <path d="M14.94,23.74c.1.03.2.06.3.1.02-.08.08-.17.05-.23-.02-.05-.13-.06-.21-.08-.05.07-.1.15-.15.22Z"/>
          <path d="M13.37,17.08c-.1-.02-.2-.08-.28-.06-.08.02-.15.11-.24.18.11.02.21.07.3.06.08-.02.15-.11.23-.17Z"/>
          <path d="M12.46,17.91c-.07-.02-.15-.04-.22-.04-.04,0-.07.05-.11.08.07.02.15.03.22.05.04-.03.07-.06.11-.08Z"/>
        </g>
        <g>
          <path d="M14.41,12.27c-.49-.32-.49.22-.7.41.27.09.53.52.79,0,.05-.1,0-.36-.08-.41Z"/>
          <path d="M15.01,9.55c.09.01.2-.14.46-.34-.12-.15-.23-.29-.35-.44-.09.11-.21.2-.26.32-.06.17-.12.4.15.45Z"/>
          <path d="M14.79,10.06c-.26-.25-.38-.39-.54-.49-.03-.02-.23.11-.26.21-.04.11.01.26.03.38.13-.02.25-.03.77-.1Z"/>
          <path d="M14.35,11.24c-.03.1.05.32.13.35.1.04.25-.06.41-.11-.02-.18.01-.41-.06-.44-.2-.1-.41-.01-.49.2Z"/>
        </g>
        <g>
          <path d="M12.7,2.81s0-.05,0-.07c-.03.01-.05.03-.07.05,0,0,.06.02.07.02Z"/>
          <path d="M12.88,1.95c-.56.14-.17.51-.17.79.25-.13.74-.04.53-.58-.04-.11-.26-.24-.36-.22Z"/>
          <path d="M13.56,3.24c-.09-.17-.22-.15-.35-.06-.18.13-.25.32-.1.49.06.08.27.13.34.08.18-.12.21-.31.12-.52Z"/>
          <path d="M11.51.17c-.36.02-.55.02-.73.07-.04.01-.07.24-.02.33.05.1.2.16.3.24.07-.1.15-.21.45-.64Z"/>
          <path d="M10.08.71c-.08-.04-.17-.08-.25-.12,0,.09-.05.2-.01.26.03.06.14.09.22.13.01-.09.02-.18.04-.27Z"/>
          <path d="M14.19,4.34c0,.09.05.19.11.25.1.1.19.05.18-.09,0-.08-.07-.16-.11-.24-.12-.09-.2-.06-.18.09Z"/>
          <path d="M8.93,1.21c.24-.18.28-.4.14-.67-.12-.24-.35-.25-.52-.15-.25.14-.31.38-.15.65.13.22.32.21.53.17Z"/>
          <path d="M14.06,7.25l.02-.06s-.04.04-.06.06c.01,0,.02,0,.04,0Z"/>
          <path d="M14.6,7c.05.07.24.03.57.06.01-.19.02-.37.04-.56-.14.02-.29,0-.41.06-.16.08-.36.21-.19.43Z"/>
          <path d="M12.08,1.29c.05.09.27.18.35.14.1-.05.13-.23.2-.38-.15-.11-.29-.28-.36-.26-.21.08-.29.3-.18.49Z"/>
          <path d="M13.93,8.56c-.1.05-.16.2-.24.3.1.07.21.15.64.45-.02-.36-.02-.55-.07-.73-.01-.04-.24-.07-.33-.02Z"/>
          <path d="M14.69,5.76c-.09,0-.2-.05-.26-.01-.06.03-.09.14-.13.22.09.01.18.02.27.04.04-.08.08-.17.12-.25Z"/>
          <path d="M14.78,8.06c.11,0,.21.01.32.02,0-.08.03-.18,0-.24-.03-.04-.14-.02-.22-.03-.03.08-.06.17-.08.25Z"/>
          <path d="M11.57,2.02c-.1,0-.21-.03-.29.01-.08.04-.12.14-.19.23.11,0,.22.02.3-.02.08-.04.12-.14.18-.22Z"/>
        </g>
        <g>
          <path d="M10.29.54c.08-.17-.01-.27-.16-.32-.21-.07-.4-.01-.46.21-.02.1.06.29.13.32.2.07.38-.02.48-.22Z"/>
          <path d="M9.78,1.69c-.07.06-.12.15-.13.24-.02.14.07.19.18.09.06-.06.09-.15.13-.23,0-.15-.07-.19-.18-.1Z"/>
          <path d="M8.8.17c-.04.09.02.3.11.37.1.08.27.06.42.09-.02-.19-.05-.38-.08-.63-.21.07-.41.08-.45.17Z"/>
        </g>
      </g>
    </g>
  </g>
</svg>