<?xml version="1.0" encoding="UTF-8"?>
<svg id="Capa_2" data-name="Capa 2" xmlns="http://www.w3.org/2000/svg" viewBox="0 0 40 33.86">
  <defs>
    <style>
      .cls-1 {
        fill: #e84c4f;
      }
    </style>
  </defs>
  <g id="capa1">
    <g>
      <path class="cls-1" d="M40,0c-2.99.13-6.7.24-10.07.5-.9.07-2.36.32-3.75.83-1.4.51-2.73,1.29-3.39,2.41-1.37,2.52.08,4.84-.1,7.97-.29,1.99-.15,3.97-.03,5.96.12,1.91.35,3.84.02,5.76-.26,1.89-.37,3.78-.22,5.67.06.71.14,1.42.23,2.12.4,4.1-5.35,2.88-5.38,0,.18-1.44.32-2.88.34-4.33.01-1.16-.04-2.32-.2-3.47-.26-1.56-.25-3.11-.17-4.67.04-.93-.12-1.86-.08-2.79.04-.78.29-1.56.27-2.34-.02-.64-.07-1.28-.16-1.91-.1-2.37.54-4.11.48-5.78-.03-.76-1.27-1.28-1.57-2.51C15.23.89,11.59.61,9.83.49,7.31.26,2.57.12,0,0h40Z"/>
      <g>
        <g>
          <path d="M19.99,31.34c.1.03.31-.06.35-.15.04-.1-.07-.25-.13-.41-.18.03-.41,0-.44.08-.09.2,0,.41.22.48Z"/>
          <path d="M21.48,32.99c.14,0,.44.27.41-.12-.01-.15-.25-.32-.43-.41-.08-.04-.24.07-.35.11-.01.31.17.42.37.42Z"/>
          <path d="M20.1,32.51c.09-.06.19-.12.29-.19-.07-.07-.14-.2-.2-.19-.11,0-.22.09-.33.14.07.07.13.14.23.24Z"/>
        </g>
        <g>
          <path d="M20.93,27.3s0,.02.01.04c0,0,0,0,.01,0,0,0-.03-.03-.03-.03Z"/>
          <path d="M20.87,28.42c.33-.33.21-.71.07-1.08-.53.02-.72.29-.48.77.07.14.39.33.41.31Z"/>
          <path d="M22.24,29.59l-.04-.06s0,.06.01.08c0,0,.02-.02.02-.03Z"/>
          <path d="M22,31s.18.01.22-.03c.23-.26.11-.56.07-.85-.03-.17-.05-.34-.07-.5-.12.14-.27.26-.34.42-.15.33-.14.67.13.96Z"/>
          <path d="M19.48,31.37c-.07-.02-.23.14-.27.25-.07.2-.01.41.23.44.1.01.21-.12.29-.17.03-.28-.05-.47-.26-.52Z"/>
          <path d="M21.57,28.74c-.03.13-.05.33.18.28.11-.03.23-.17.27-.28.04-.13-.02-.28-.07-.65-.25.42-.35.53-.38.65Z"/>
          <path d="M18.89,26.54c.02-.08-.03-.18-.05-.28-.06.08-.16.14-.18.23-.02.08.03.19.05.29.07-.09.16-.16.18-.25Z"/>
          <path d="M19.22,27.58s-.02-.09-.03-.13c-.05.06-.1.11-.13.18-.02.03.02.09.03.13.05-.06.09-.12.14-.18Z"/>
          <path d="M18.04,30.1c-.03.13-.05.33.18.28.11-.03.23-.17.27-.28.04-.13-.02-.28-.07-.65-.25.42-.35.53-.38.65Z"/>
          <path d="M19.98,28.97c-.14.07-.33.39-.31.41.33.33.71.21,1.08.07-.02-.53-.29-.72-.77-.48Z"/>
          <path d="M20.79,29.44s-.02,0-.04.01c0,0,0,0,0,.01,0,0,.03-.03.03-.03Z"/>
          <path d="M20.5,25.66c.14-.01.46.24.4-.15-.02-.15-.28-.3-.45-.38-.08-.04-.24.09-.35.14.01.31.2.41.4.39Z"/>
          <path d="M20.23,31.28s.03.03.05.05c0-.03.01-.06,0-.09,0,0-.06.04-.06.04Z"/>
          <path d="M20.28,31.33c-.06.27-.45.59.09.78.11.04.35-.04.4-.13.26-.52-.28-.46-.49-.65Z"/>
          <path d="M19.22,30.18c-.01.1.12.21.17.29.28.03.47-.05.52-.26.02-.07-.14-.23-.25-.27-.2-.07-.41-.01-.44.23Z"/>
          <path d="M21.55,32.26c.06.12.22.19.33.27.05-.07.1-.14.16-.24-.1-.1-.19-.27-.31-.3-.2-.06-.25.13-.18.26Z"/>
          <path d="M21.08,30.61c-.13-.03-.33-.05-.28.18.03.11.17.23.28.27.13.04.28-.02.65-.07-.42-.25-.53-.35-.65-.38Z"/>
          <path d="M19.09,25.28c.09-.07.18-.14.28-.21-.07-.06-.15-.19-.21-.18-.11.01-.21.11-.32.17.07.06.14.13.25.22Z"/>
          <path d="M20.37,27.47c-.42-.25-.53-.35-.65-.38-.13-.03-.33-.05-.28.18.03.11.17.23.28.27.13.04.28-.02.65-.07Z"/>
        </g>
        <g>
          <path d="M18.21,27.53c-.23.13-.24.35-.14.52.15.25.39.3.65.13.21-.13.2-.33.15-.53-.19-.24-.41-.27-.67-.12Z"/>
          <path d="M21.21,21.08l-.07-.02s.04.04.06.05c0-.01,0-.02,0-.04Z"/>
          <path d="M21.98,22.28s.15-.11.14-.17c0-.34-.29-.49-.52-.67-.13-.11-.26-.22-.39-.32,0,.18-.02.38.03.54.11.35.35.59.74.63Z"/>
          <path d="M22.2,19.69s0-.05,0-.07c-.03.02-.05.03-.07.05,0,0,.07.02.07.02Z"/>
          <path d="M19.51,27.91c-.04.33.18.13.23.05.13-.19.22-.41.34-.63-.12-.04-.28-.1-.28-.08-.11.21-.26.43-.28.66Z"/>
          <path d="M20.69,16.59c.07-.06.03-.24.05-.57-.19,0-.37-.01-.56-.02.02.14.01.29.07.41.09.16.22.36.44.18Z"/>
          <path d="M20.36,24.24c-.06.03-.08.26-.03.36.09.19.27.31.47.17.08-.06.08-.23.1-.32-.17-.22-.35-.32-.54-.21Z"/>
          <path d="M18.83,26.19c-.03-.12-.19-.21-.29-.31-.09.17-.18.33-.3.56.21.06.38.17.46.12.09-.05.15-.26.12-.37Z"/>
          <path d="M19.71,25.86c.09.18.27.1.32-.04.04-.13,0-.29-.02-.43-.09.01-.17.03-.28.04,0,.14-.07.32-.01.43Z"/>
          <path d="M20.94,17.09c-.36.03-.55.03-.73.09-.04.01-.06.24-.01.33.06.1.2.16.31.23.07-.11.14-.21.43-.65Z"/>
          <path d="M20.14,20.9c.06.11.19.28.32.09.06-.09.06-.28,0-.39-.06-.12-.21-.19-.48-.44.09.48.09.63.15.74Z"/>
          <path d="M21.75,16.07c-.08,0-.18-.03-.24.01-.04.03-.02.15-.02.22.08.03.17.05.25.08v-.32Z"/>
          <path d="M21.46,20c-.1.07-.19.2-.19.28,0,.2.24.06.4.02.17-.12.35-.24.25-.36-.09-.11-.3-.07-.46.05Z"/>
          <path d="M20.86,23.68s.05,0,.07,0c-.02-.03-.03-.05-.05-.07,0,0-.02.07-.02.07Z"/>
          <path d="M20.93,23.68c.14.24.06.74.59.52.11-.04.23-.27.21-.37-.16-.56-.52-.15-.8-.15Z"/>
          <path d="M21.54,18.19c.05.09.27.17.35.13.09-.05.12-.23.19-.38-.15-.1-.3-.27-.37-.25-.21.08-.28.3-.17.5Z"/>
          <path d="M21.04,22.61c-.11.06-.28.19-.09.32.09.06.28.06.39,0,.12-.06.19-.21.44-.48-.48.09-.63.09-.74.15Z"/>
          <path d="M21.05,18.93c-.1,0-.21-.02-.29.02-.08.04-.12.15-.18.24.11,0,.22.01.3-.03.07-.04.11-.15.17-.22Z"/>
          <path d="M20.41,19.98c-.07,0-.15,0-.22.02-.03.01-.05.07-.08.11.07,0,.15-.01.22-.02.03-.04.05-.07.08-.11Z"/>
          <path d="M20.97,27.23c-.09.11-.05.19.1.18.08-.01.16-.08.24-.12.08-.12.05-.2-.09-.18-.09,0-.19.06-.25.12Z"/>
        </g>
        <g>
          <path d="M20.52,13.76l-.06-.02s.04.04.06.05c0-.01,0-.02,0-.04Z"/>
          <path d="M21.27,14.97s.15-.11.15-.17c0-.34-.29-.49-.51-.68-.13-.11-.26-.22-.39-.33,0,.18-.03.37.03.54.11.35.34.6.73.63Z"/>
          <path d="M21.52,12.38s0-.05,0-.07c-.03.01-.05.03-.07.05,0,0,.06.02.07.02Z"/>
          <path d="M21.68,11.52c-.56.16-.16.52-.16.8.24-.14.74-.05.52-.59-.04-.11-.27-.24-.36-.21Z"/>
          <path d="M19.64,16.92c-.06.03-.08.26-.04.36.08.19.27.32.47.17.08-.06.08-.23.1-.32-.16-.23-.34-.32-.54-.22Z"/>
          <path d="M18.98,18.53c.09.19.27.1.32-.04.04-.13,0-.29-.02-.43-.09.01-.17.02-.28.04,0,.14-.07.32-.02.43Z"/>
          <path d="M21.1,8.75c-.08,0-.18-.03-.24.01-.04.03-.02.15-.02.22.08.03.17.05.25.08v-.32Z"/>
          <path d="M20.77,12.69c-.1.07-.19.2-.19.28,0,.2.24.07.4.03.17-.11.35-.23.25-.36-.09-.11-.3-.07-.46.05Z"/>
          <path d="M20.15,16.36s.05,0,.07,0c-.01-.03-.03-.05-.05-.07,0,0-.02.06-.02.07Z"/>
          <path d="M20.22,16.36c.14.24.05.74.59.52.11-.04.24-.27.21-.36-.16-.56-.52-.16-.8-.16Z"/>
          <path d="M20.87,10.88c.05.09.27.17.35.13.1-.05.12-.23.19-.38-.15-.1-.3-.28-.37-.25-.21.08-.28.3-.17.5Z"/>
          <path d="M21.22,13.8c.05.09.26.16.37.13.12-.03.21-.19.31-.29-.17-.09-.33-.18-.56-.3-.06.21-.17.38-.12.46Z"/>
          <path d="M21.12,18.7c-.07.07-.12.27-.08.34.12.17.32.2.52.1.17-.09.15-.23.05-.35-.13-.18-.32-.24-.5-.09Z"/>
          <path d="M21.78,16.21c.13.04.29,0,.43-.02-.01-.09-.02-.17-.04-.28-.14,0-.32-.07-.43-.02-.19.09-.1.27.04.32Z"/>
          <path d="M20.33,15.29c-.11.06-.28.19-.09.32.09.06.28.06.39.01.12-.06.2-.2.44-.48-.48.09-.63.09-.74.15Z"/>
          <path d="M20.23,19.91c-.09.11-.05.19.09.18.08,0,.16-.07.24-.11.08-.12.05-.2-.09-.18-.09,0-.19.06-.25.12Z"/>
        </g>
        <g>
          <path d="M21.19,8.06l-.02-.06s0,.06,0,.08c0,0,.02-.01.03-.02Z"/>
          <path d="M20.61,9.37s.17.06.22.03c.28-.2.24-.51.27-.8.02-.17.03-.34.05-.51-.15.1-.33.19-.43.33-.23.29-.3.62-.11.96Z"/>
          <path d="M20.75,7.08c-.06.11-.13.31.11.32.11,0,.27-.11.33-.21.07-.11.05-.28.09-.64-.35.34-.47.42-.53.53Z"/>
          <path d="M23.09,4.76c-.02-.09-.03-.18-.05-.27-.08.05-.19.08-.22.14-.03.06.01.17.02.26.08-.04.16-.08.24-.13Z"/>
          <path d="M22.02,4.12c.29.09.49,0,.63-.27.12-.24,0-.42-.18-.51-.26-.12-.49-.03-.62.25-.1.23.01.38.17.53Z"/>
          <path d="M21.26,4.83c-.05.45.11.74.47.9.17.08.49.07.41-.19-.09-.32-.35-.59-.57-.86-.02-.02-.22.1-.31.15Z"/>
          <path d="M20.58,12.09c-.03.08.11.22.28.5.16-.1.32-.2.48-.29-.1-.1-.17-.24-.29-.3-.16-.08-.39-.17-.46.09Z"/>
          <path d="M21.55,8.67c-.04.09.02.3.1.37.1.08.27.07.41.1-.02-.19-.04-.38-.06-.63-.21.07-.41.07-.45.16Z"/>
          <path d="M21.64,11.45c-.05-.08-.08-.19-.14-.22-.06-.03-.17.01-.26.02.04.08.08.16.13.24.09-.02.18-.03.27-.05Z"/>
          <path d="M21.66,6.79c-.05-.06-.08-.13-.14-.17-.03-.02-.09,0-.13,0,.05.06.09.12.14.18.04,0,.09,0,.13,0Z"/>
        </g>
        <g>
          <path d="M25.21.75h-.07s.05.02.07.04c0-.01,0-.02,0-.04Z"/>
          <path d="M26.12,1.86s.13-.13.12-.19c-.05-.34-.35-.45-.59-.61-.14-.09-.28-.18-.43-.28.02.18.02.38.09.53.15.33.42.55.8.54Z"/>
          <path d="M22.17,6.35c-.01-.09-.03-.19-.05-.33-.11,0-.23-.02-.35-.03.01.09,0,.24.04.27.09.06.23.06.35.08Z"/>
          <path d="M22.83,4.24c.07.11.22.26.33.05.05-.1.03-.29-.04-.39-.07-.11-.23-.17-.53-.38.15.47.16.61.24.71Z"/>
          <path d="M23.26,2.04c-.04.16.07.51.1.5.47-.03.63-.39.77-.77-.41-.34-.73-.26-.87.26Z"/>
          <path d="M24.14,1.74s0,.02-.01.04c0,0,0,0,.01,0,0,0,0-.04,0-.04Z"/>
          <path d="M22.64,5.12c.02-.12.06-.29.05-.29-.23-.08-.46-.2-.69-.2-.33,0-.11.19-.02.24.21.11.44.17.66.26Z"/>
          <path d="M23.67,3.42c.07.07.24.05.33.06.2-.19.27-.38.15-.56-.04-.06-.27-.05-.36,0-.18.11-.28.3-.12.49Z"/>
        </g>
        <path d="M26.98,1.33c.08-.1.05-.28.07-.42-.19.03-.37.06-.62.1.08.21.1.41.18.44.09.04.3-.03.37-.12Z"/>
      </g>
    </g>
  </g>
</svg>