<svg xmlns="http://www.w3.org/2000/svg" viewBox="0 0 252.333 31.774"><g><path d="M8.1 22.565h11.112l-5.45-13.846Zm14.751 9.209-2.762-6.983H7.2l-2.836 6.983H0v-.748a3.606 3.606 0 0 0 3.02-2.448l9.338-22.842a3.706 3.706 0 0 0-1.82-1.256v-.748h6.032l9.883 24.81a3.352 3.352 0 0 0 2.946 2.484v.748Z" fill="#FFF"/><path d="M48.63 18.519a13.608 13.608 0 0 1-4.581.85 10.254 10.254 0 0 1-5.228-1.367v11.693a27.4 27.4 0 0 0 4.692.37c3.9 0 7.611-1.219 7.611-6.309a6.2 6.2 0 0 0-2.494-5.237Zm-5.7-13.07a28.243 28.243 0 0 0-4.119.3v10.363a9.781 9.781 0 0 0 5.228 1.561c2.448 0 5.514-.822 5.514-5.681.01-4.4-2.585-6.543-6.622-6.543Zm-8.442 2.143c0-1.856-.794-2.6-2.383-3.113v-.748h12.266c5.154 0 9.7 2.679 9.7 7.648a6.839 6.839 0 0 1-2.78 5.643 6.412 6.412 0 0 1 4.332 6.318c0 6.5-5.413 8.433-11.139 8.433H32.106v-.748c1.589-.517 2.383-1.256 2.383-3.113V7.591Z" fill="#FFF"/><path d="M80.654 5.468c.73 0 1.127-.794 1.459-1.736h.73l1.275 7.99h-.73c-2.337-2.752-5.727-5.967-10.539-5.967-5.579 0-9.846 4.12-9.846 10.668 0 7.094 4.563 12.442 11.527 12.442a17.116 17.116 0 0 0 9.08-2.789l.406.868a16.181 16.181 0 0 1-12.072 4.812c-7.4 0-13.6-5.135-13.6-14.151A13.985 13.985 0 0 1 72.522 3.713c4.988.018 7.1 1.755 8.128 1.755Z" fill="#FFF"/></g><g><path fill="#e4b016" d="M87.895 5.32v-.508H98.48c5.782 0 10.391 2.6 10.391 8.221 0 5.348-4.461 8.415-9.227 8.415a10.472 10.472 0 0 1-3.224-.462v-.462h2.254c4.424-.037 7.371-2.642 7.371-7.371 0-4.655-2.946-7.214-7.408-7.214h-4.969v24.089l3.334.619v.508h-9.116v-.508l3.1-.619V5.939Z"/></g><g><path fill="#e4b016" d="M121.6 16.025a12.258 12.258 0 0 0-.739-3.26 9.585 9.585 0 0 0-5.588 3.26v14l3.224.619v.508h-8.5v-.508l2.789-.619v-16.6l-2.835-.351v-.545l4.969-1.127h.231v3.612h.12a7.915 7.915 0 0 1 6.595-3.722 6.521 6.521 0 0 1 1.709.194 13.5 13.5 0 0 1-.7 4.535Z"/></g><g><path fill="#e4b016" d="M139.325 27.155c-1.321 2.291-3.334 4.387-7.02 4.387-5.2 0-8.451-3.492-8.451-10.317 0-5.976 3.685-9.929 8.3-9.929 4.886 0 7.288 3.455 7.288 8.341v1.478l-13.107-.074v.314c0 6.05 2.641 8.609 6.281 8.609a7.881 7.881 0 0 0 6.281-3.141Zm-12.95-6.937 10.668-.314v-.776c0-4.147-1.746-6.9-4.969-6.9-3.029.001-5.394 2.827-5.698 7.991Z"/></g><g><path fill="#e4b016" d="M145.763 11.407v2.946h.12a9.027 9.027 0 0 1 6.4-3.067 5.28 5.28 0 0 1 5.08 3.3h.037a9.524 9.524 0 0 1 6.669-3.3c2.983 0 5.588 1.866 5.588 6.438v12.3l2.79.619v.508h-7.953v-.508l2.679-.619V17.457c0-3.334-1.819-4.581-4.036-4.581a8.515 8.515 0 0 0-5.588 2.448 7.558 7.558 0 0 1 .351 2.4v12.3l2.521.619v.508h-7.445v-.508l2.448-.619V17.457c0-3.334-1.82-4.581-4.073-4.581a8.3 8.3 0 0 0-5.468 2.4v14.751l2.679.619v.508h-7.953v-.508l2.79-.619v-16.6l-2.836-.351v-.545l4.969-1.127Z"/></g><g><path fill="#e4b016" d="m178.497 30.029 2.79.619v.508h-8.064v-.508l2.789-.619v-16.6l-2.836-.351v-.545l5.08-1.127h.231v18.621Zm-1.432-26.334a1.709 1.709 0 1 1-1.709 1.709 1.723 1.723 0 0 1 1.709-1.709Z"/></g><g><path fill="#e4b016" d="M187.032 27.737a4.457 4.457 0 0 0 4.147 2.208 8.237 8.237 0 0 0 5.542-2.4V13.422l-2.91-.351v-.545l5.006-1.127h.388v18.63l2.836.619v.508h-4.849l-.268-2.789h-.12a8.946 8.946 0 0 1-6.512 3.177 5.667 5.667 0 0 1-5.736-3.722V13.431l-2.716-.351v-.545l5.006-1.127h.194v16.33Z"/></g><g><path fill="#e4b016" d="M208.174 11.407v2.946h.12a9.028 9.028 0 0 1 6.4-3.067 5.28 5.28 0 0 1 5.08 3.3h.037a9.524 9.524 0 0 1 6.669-3.3c2.983 0 5.588 1.866 5.588 6.438v12.3l2.789.619v.508h-7.953v-.508l2.678-.619V17.457c0-3.334-1.82-4.581-4.036-4.581a8.513 8.513 0 0 0-5.588 2.448 7.566 7.566 0 0 1 .351 2.4v12.3l2.522.619v.508h-7.445v-.508l2.448-.619V17.457c0-3.334-1.82-4.581-4.073-4.581a8.3 8.3 0 0 0-5.468 2.4v14.751l2.679.619v.508h-7.953v-.508l2.789-.619v-16.6l-2.836-.351v-.545l4.97-1.127Z"/></g><path fill="#e4b016" d="M242.331.489a.7.7 0 0 1 1.33 0l1.986 5.551a.4.4 0 0 0 .138.185.371.371 0 0 0 .212.074l5.653.259a.717.717 0 0 1 .646.517.766.766 0 0 1-.23.813l-4.424 3.694a.4.4 0 0 0-.13.194.425.425 0 0 0-.009.24l1.506 5.718a.758.758 0 0 1-.268.8.679.679 0 0 1-.813.018l-4.72-3.27a.367.367 0 0 0-.222-.065.474.474 0 0 0-.221.065l-4.72 3.27a.679.679 0 0 1-.813-.018.763.763 0 0 1-.268-.8l1.505-5.718a.433.433 0 0 0-.01-.24.4.4 0 0 0-.129-.194l-4.424-3.694a.767.767 0 0 1-.231-.813.731.731 0 0 1 .647-.517l5.653-.259a.369.369 0 0 0 .212-.074.4.4 0 0 0 .139-.185Z" fill-rule="evenodd"/></svg>