<svg width="258" height="85" viewBox="0 0 258 85" fill="none" xmlns="http://www.w3.org/2000/svg">
<g clip-path="url(#clip0_443_101)">
<path d="M71.0245 83.872L62.4442 63.2706H22.3574L13.5519 83.872H0V81.6812C2.08591 81.4899 4.07459 80.7086 5.7343 79.4283C7.39401 78.148 8.65639 76.4215 9.37433 74.45L38.3921 7.07097C36.9225 5.29224 34.9561 3.99392 32.745 3.34254V1.13397H51.4877L82.2002 74.3372C82.7974 76.3491 83.9935 78.1304 85.6285 79.4428C87.2634 80.7552 89.2594 81.5362 91.3494 81.6812V83.872H71.0245ZM25.178 56.6924H59.7303L42.7948 15.8162L25.178 56.6924Z" fill="black"/>
<path d="M103.591 12.533C103.591 7.05316 101.108 4.86241 96.1367 3.33066V1.13397H134.529C150.676 1.13397 164.904 9.02424 164.904 23.6946C164.939 26.9744 164.164 30.2121 162.647 33.1189C161.13 36.0256 158.919 38.5112 156.211 40.3538C160.196 41.5412 163.681 44.0079 166.129 47.3742C168.578 50.7404 169.855 54.8197 169.763 58.9841C169.763 78.1606 152.827 83.8601 134.873 83.8601H96.1367V81.6694C101.102 80.1376 103.591 77.9409 103.591 72.467V12.533ZM130.031 6.17448C125.726 6.1674 121.425 6.461 117.161 7.05316V37.6287C122.107 40.6073 127.762 42.1966 133.533 42.2299C141.237 42.2299 150.806 39.8195 150.806 25.4638C150.771 12.533 142.659 6.17448 130.031 6.17448ZM147.873 44.765C143.263 46.386 138.419 47.2383 133.533 47.2882C127.82 47.3561 122.184 45.9603 117.161 43.2332V77.7213C122.016 78.4861 126.924 78.8534 131.839 78.8196C144.034 78.8196 155.666 75.204 155.666 60.1893C155.77 57.1635 155.108 54.1605 153.741 51.4603C152.375 48.7601 150.348 46.4506 147.85 44.7472L147.873 44.765Z" fill="black"/>
<path d="M246.298 5.26611C248.556 5.26611 249.8 2.85569 250.814 -8.22637e-06H253.071L257.024 24.2408H254.766C247.537 15.929 237.037 6.14478 222.134 6.14478C204.861 6.14478 191.646 18.6481 191.646 38.5014C191.646 59.9993 205.761 76.231 227.33 76.231C237.3 76.0661 247.031 73.1445 255.448 67.7886L256.692 70.4187C251.782 75.2716 245.935 79.0686 239.508 81.577C233.082 84.0853 226.212 85.2522 219.319 85.0059C213.667 85.2408 208.028 84.287 202.766 82.2058C197.505 80.1246 192.736 76.9622 188.768 72.9224C184.8 68.8826 181.721 64.0549 179.728 58.7502C177.736 53.4455 176.875 47.7815 177.2 42.123C177.303 36.4618 178.524 30.877 180.791 25.6905C183.058 20.5039 186.327 15.818 190.41 11.9027C194.492 7.98732 199.307 4.91991 204.578 2.87712C209.849 0.83432 215.471 -0.143495 221.12 -8.22637e-06C236.586 -8.22637e-06 243.134 5.26611 246.298 5.26611Z" fill="black"/>
</g>
<defs>
<clipPath id="clip0_443_101">
<rect width="257.024" height="85" fill="white"/>
</clipPath>
</defs>
</svg>
