<?xml version="1.0" encoding="UTF-8"?>
<svg id="Capa_2" data-name="Capa 2" xmlns="http://www.w3.org/2000/svg" viewBox="0 0 703.9 665.39">
  <defs>
    <style>
      .cls-1 {
        fill: none;
        stroke: #000;
        stroke-miterlimit: 10;
        stroke-width: 2px;
      }
    </style>
  </defs>
  <g id="Capa_7" data-name="Capa 7">
    <path class="cls-1" d="M0,313.56h51.77c1,0,1.96.4,2.67,1.11l2.6,2.6c1.48,1.48,3.87,1.48,5.34,0l1.04-1.04c1.48-1.48,3.87-1.48,5.34,0l1.04,1.04c1.48,1.48,3.87,1.48,5.34,0l3.71-3.71,3.71-3.71c1.48-1.48,3.87-1.48,5.34,0l3.71,3.71,3.71,3.71c1.48,1.48,3.87,1.48,5.34,0l1.04-1.04c1.48-1.48,3.87-1.48,5.34,0l1.04,1.04c1.48,1.48,3.87,1.48,5.34,0l3.71-3.71,3.71-3.71c1.48-1.48,3.87-1.48,5.34,0l2.6,2.6c.71.71,1.67,1.11,2.67,1.11h9.63c1,0,1.96.4,2.67,1.11l2.6,2.6c1.48,1.48,3.87,1.48,5.34,0l2.6-2.6c.71-.71,1.67-1.11,2.67-1.11h9.56c1.04,0,2.03.43,2.75,1.18l2.51,2.66c1.49,1.58,4,1.58,5.49,0l3.63-3.85,3.71-3.71c1.48-1.48,3.87-1.48,5.34,0l2.6,2.6c.71.71,1.67,1.11,2.67,1.11h35.14c1,0,1.96-.4,2.67-1.11l2.6-2.6c1.48-1.48,3.87-1.48,5.34,0h0c1.82,1.82,4.9,1.32,6.05-.98l.46-.91c1.47-2.95,5.68-2.95,7.16,0l1.7,3.39c.68,1.36,2.06,2.21,3.58,2.21h1.43c1.52,0,2.9.86,3.58,2.21l1.7,3.39c1.47,2.95,5.68,2.95,7.16,0l1.7-3.39c.68-1.36,2.06-2.21,3.58-2.21h27.76c1.06,0,2.08.42,2.83,1.17l2.38,2.38c1.56,1.56,4.09,1.56,5.66,0l2.38-2.38c.75-.75,1.77-1.17,2.83-1.17h15.9c1.02,0,1.99-.39,2.73-1.08l2.49-2.33c1.54-1.44,3.93-1.44,5.47,0l2.49,2.33c.74.69,1.72,1.08,2.73,1.08h72.08c1.72,0,3.25-1.1,3.79-2.74l2.26-6.78c.83-2.49,4.44-2.21,4.87.38l1.6,9.62c.48,2.9,4.7,2.76,4.99-.16l2.43-24.32c.3-2.96,4.58-3.05,5-.11l2.58,18.06c.5,3.47,3.47,6.05,6.98,6.05h.27s6.38,0,6.38,0h0c3.62,0,6.65-2.74,7.01-6.35l3.24-32.38c.3-3.02,4.71-3.02,5.01,0l2.26,22.64c.29,2.86,4.37,3.09,4.97.27l.24-1.13c.58-2.72,4.5-2.63,4.95.11l7.42,45.05c.48,2.91,4.71,2.77,4.99-.17l2.41-25.48c.28-2.99,4.63-3.06,5.01-.08l.78,6.14c.38,2.96,4.69,2.92,5-.05l2.43-22.83c.3-2.85,4.37-3.06,4.97-.26h0c.59,2.77,4.6,2.61,4.96-.2l1.22-9.59c.39-3.02,4.81-2.89,5.01.15l10.83,161.63c.11,1.61,1.44,2.85,3.05,2.85h.53c1.66,0,3.02-1.33,3.06-2.99l6.24-268.53c.04-1.66,1.4-2.99,3.06-2.99h.39c1.67,0,3.03,1.34,3.06,3l6.27,356.74c.03,1.67,1.39,3,3.06,3h.36c1.67,0,3.03-1.34,3.06-3.01l6.29-433.04c.02-1.67,1.39-3.01,3.06-3.01h.35c1.67,0,3.04,1.34,3.06,3.02l6.3,491.51c.02,1.67,1.38,3.02,3.06,3.02h.37c1.66,0,3.02-1.33,3.06-2.99l6.31-284.05,6.3-245.79c.04-1.66,1.4-2.98,3.06-2.98h.35c1.68,0,3.05,1.36,3.06,3.04l2.31,561.62c0,1.68,1.37,3.04,3.06,3.04h.3c1.68,0,3.05-1.36,3.06-3.04l4-580.77c.01-1.68,1.38-3.04,3.06-3.04h.32c1.67,0,3.04,1.35,3.06,3.02l6.31,542.53c.02,1.67,1.38,3.02,3.06,3.02h.33c1.68,0,3.04-1.35,3.06-3.02l6.31-587.17c.02-1.68,1.38-3.02,3.06-3.02h.33c1.68,0,3.04,1.35,3.06,3.03l6.32,657.33c.02,1.68,1.38,3.03,3.06,3.03h0c1.67,0,3.02-1.33,3.06-3l6.6-343.91c.04-2.18,1.82-3.92,4-3.92h8.76"/>
  </g>
</svg>