<?xml version="1.0" encoding="UTF-8"?>
<svg id="Capa_2" data-name="Capa 2" xmlns="http://www.w3.org/2000/svg" viewBox="0 0 124.86 28.27">
  <defs>
    <style>
      .cls-1 {
        fill: none;
        stroke: #000;
        stroke-miterlimit: 10;
        stroke-width: 2px;
      }
    </style>
  </defs>
  <g id="Capa_7" data-name="Capa 7">
    <path class="cls-1" d="M0,18.86h9.71c1.75,0,3.23-1.29,3.48-3.02l1.69-11.82c.59-4.13,6.61-3.98,6.99.18l.7,7.71c.38,4.19,6.47,4.3,6.99.12h0c.48-3.87,5.96-4.2,6.9-.42l1.15,4.58c.39,1.57,1.8,2.66,3.41,2.66h1.46c1.33,0,2.55.75,3.15,1.94l2.26,4.52c1.3,2.59,5,2.59,6.29,0l2.26-4.52c.6-1.19,1.81-1.94,3.15-1.94h2.55c1.06,0,2.08-.42,2.83-1.17l2.38-2.38c1.56-1.56,4.09-1.56,5.66,0l2.38,2.38c.75.75,1.77,1.17,2.83,1.17h3.06c1.06,0,2.08.42,2.83,1.17l2.38,2.38c1.56,1.56,4.09,1.56,5.66,0l1.38-1.38c1.28-1.28,3.26-1.54,4.83-.63l1.72.99c1.24.72,2.77.72,4.01,0l3.45-1.99c.61-.35,1.3-.54,2-.54h15.35"/>
  </g>
</svg>