<?xml version="1.0" encoding="UTF-8"?><svg id="Capa_2" xmlns="http://www.w3.org/2000/svg" viewBox="0 0 72 48"><defs><style>.cls-1{fill:#c8102e;}.cls-1,.cls-2,.cls-3{stroke-width:0px;}.cls-2{fill:#fff;}.cls-3{fill:#012169;}</style></defs><g id="Capa_1-2"><rect class="cls-3" width="72" height="48"/><polygon class="cls-2" points="72 0 72 8.11 58.97 15.93 72 15.93 72 32.07 58.9 32.07 72 39.92 72 48 66.54 48 44.07 34.52 44.07 48 27.93 48 27.93 34.55 5.5 48 0 48 0 39.95 13.14 32.07 0 32.07 0 15.93 13.07 15.93 0 8.09 0 0 5.42 0 27.93 13.5 27.93 0 44.07 0 44.07 13.52 66.62 0 72 0"/><polygon class="cls-1" points="72 41.81 72 45.62 49.41 32.07 55.76 32.07 72 41.81"/><polygon class="cls-1" points="22.55 15.93 16.18 15.93 0 6.23 0 2.41 22.55 15.93"/><polygon class="cls-1" points="27.9 32.12 27.9 32.68 2.36 48 0 48 0 45.59 22.46 32.12 27.9 32.12"/><polygon class="cls-1" points="72 0 72 2.42 49.49 15.92 44.05 15.92 44.05 15.36 69.67 0 72 0"/><polygon class="cls-1" points="72 19.15 72 28.85 40.85 28.85 40.85 48 31.15 48 31.15 28.85 0 28.85 0 19.15 31.15 19.15 31.15 0 40.85 0 40.85 19.15 72 19.15"/></g></svg>