<?xml version="1.0" encoding="UTF-8"?><svg id="Capa_2" xmlns="http://www.w3.org/2000/svg" viewBox="0 0 600 600"><defs><style>.cls-1{stroke-width:0px;}.cls-1,.cls-2{fill:none;}.cls-2{stroke:#0e3a6f;stroke-linecap:round;stroke-linejoin:round;stroke-width:8px;}</style></defs><g id="ICONOS"><rect class="cls-1" width="600" height="600"/><polygon class="cls-2" points="60 540 240 570 240 60 180 90 60 540"/><polyline class="cls-2" points="68.57 510 30 510 180 90"/><polygon class="cls-2" points="540 540 360 570 360 60 420 90 540 540"/><polyline class="cls-2" points="531.43 510 570 510 420 90"/><polygon class="cls-2" points="360 91.67 300 120 240 91.67 240 60 300 88.33 360 60 360 91.67"/><polyline class="cls-2" points="240 60 300 30 360 60"/><line class="cls-2" x1="300" y1="88.33" x2="300" y2="120"/><rect class="cls-2" x="291.39" y="95.56" width="17.22" height="17.22" transform="translate(14.21 242.64) rotate(-45)"/><line class="cls-2" x1="240" y1="510" x2="360" y2="510"/></g></svg>