<?xml version="1.0" encoding="UTF-8"?>
<svg id="Capa_2" data-name="Capa 2" xmlns="http://www.w3.org/2000/svg" viewBox="0 0 600 600">
  <defs>
    <style>
      .cls-1 {
        fill: none;
      }

      .cls-2 {
        fill: #0e3a6f;
      }
    </style>
  </defs>
  <g id="ICONOS">
    <g>
      <rect class="cls-1" width="600" height="600"/>
      <g>
        <path class="cls-2" d="M541.97,299.67l-30-180c-.07-.41-.26-.79-.56-1.09l-60-60c-.38-.38-.88-.59-1.41-.59h-60c-.76,0-1.45.43-1.79,1.11l-29.45,58.89h-117.53l-29.45-58.89c-.34-.68-1.03-1.11-1.79-1.11h-60c-.53,0-1.04.21-1.41.59l-60,60c-.29.29-.49.67-.56,1.09l-30,180c-.1.58.07,1.17.45,1.62.38.45.94.71,1.53.71h88v117.97h0v58.14s0,.03,0,.04c0,.12.02.24.04.35,0,.04.02.08.03.12.02.09.06.19.09.27.02.04.03.07.05.11.05.1.11.19.17.28.01.02.02.04.04.06.08.1.18.2.28.29,0,0,.01.01.02.02.02.02.04.02.06.04.08.06.17.12.26.17.04.02.07.04.11.06.09.04.18.07.27.1.04.01.08.03.12.04.01,0,.03,0,.04.01l150,31.89c.14.03.28.04.42.04s.28-.01.42-.04l150-31.89s.08-.03.12-.04c.06-.02.12-.03.18-.05.06-.02.11-.05.16-.07.05-.02.1-.05.15-.08.05-.03.1-.07.16-.11.03-.02.07-.04.1-.07,0,0,.01-.01.02-.02.1-.09.2-.18.28-.29.01-.02.03-.04.04-.06.06-.09.12-.18.17-.28.02-.04.03-.07.05-.11.04-.09.07-.18.09-.27.01-.04.02-.08.03-.12.02-.12.04-.23.04-.35,0-.01,0-.03,0-.04v-58.13h0v-117.98h88c.59,0,1.15-.26,1.53-.71.38-.45.54-1.04.45-1.62ZM300,447.06c-.13,0-.25.01-.38.04l-147.62,28.59v-23.89l148.38-28.81,147.62,28.67v24.04l-147.62-28.59c-.12-.02-.25-.04-.38-.04ZM71.69,242h76.31v26h-80.64l4.33-26ZM448,447.57l-147.24-28.59c-.25-.05-.51-.05-.76,0l-148,28.74v-26.07l148-28.67,148,28.67v25.92ZM452,242h76.28s.02,0,.03,0l4.33,26h-80.64v-26ZM91.87,120.96l58.96-58.96h57.94l29.45,58.89c.34.68,1.03,1.11,1.79,1.11h120c.76,0,1.45-.43,1.79-1.11l29.45-58.89h57.94l58.96,58.96,19.51,117.04h-75.64v-58c0-1.1-.9-2-2-2s-2,.9-2,2v237.58l-147.62-28.59c-.25-.05-.51-.05-.76,0l-147.62,28.59v-237.58c0-1.1-.9-2-2-2s-2,.9-2,2v58h-75.64l19.51-117.04ZM62.36,298l4.33-26h81.31v26H62.36ZM300,507.95l-139.95-29.75,139.95-27.11,139.95,27.11-139.95,29.75ZM452,298v-26h81.31l4.33,26h-85.64Z"/>
        <path class="cls-2" d="M210.08,151.92h180c1.1,0,2-.9,2-2s-.9-2-2-2h-180c-1.1,0-2,.9-2,2s.9,2,2,2Z"/>
      </g>
    </g>
  </g>
</svg>