<?xml version="1.0" encoding="UTF-8"?>
<svg id="Capa_2" data-name="Capa 2" xmlns="http://www.w3.org/2000/svg" viewBox="0 0 600 600">
  <defs>
    <style>
      .cls-1 {
        fill: none;
      }

      .cls-2 {
        fill: #0e3a6f;
      }
    </style>
  </defs>
  <g id="ICONOS">
    <g>
      <rect class="cls-1" width="600" height="600"/>
      <path class="cls-2" d="M571.88,509.33L421.88,89.33s-.04-.08-.06-.13c-.03-.06-.05-.12-.08-.17-.04-.07-.08-.13-.12-.19-.04-.05-.07-.1-.11-.14-.05-.06-.11-.11-.16-.16-.04-.04-.08-.08-.13-.12-.06-.05-.13-.09-.2-.13-.04-.03-.08-.06-.12-.08l-60-30-60-30c-.56-.28-1.23-.28-1.79,0l-60,30-60,30s-.08.06-.13.08c-.07.04-.13.08-.19.12-.05.04-.09.08-.13.12-.06.05-.11.1-.16.16-.04.05-.07.1-.11.15-.04.06-.09.12-.12.19-.03.06-.06.11-.08.17-.02.04-.04.08-.06.13L28.12,509.33c-.22.61-.13,1.29.25,1.83.38.53.98.85,1.63.85h35.4l-7.33,27.48c-.15.54-.05,1.12.25,1.6.3.47.8.8,1.35.89l180,30c.11.02.22.03.33.03.47,0,.93-.17,1.29-.47.45-.38.71-.94.71-1.53v-58h116v58c0,.59.26,1.15.71,1.53.36.31.82.47,1.29.47.11,0,.22,0,.33-.03l180-30c.56-.09,1.05-.42,1.35-.89.31-.47.4-1.05.25-1.6l-7.33-27.48h35.4c.65,0,1.26-.32,1.63-.85.38-.53.47-1.21.25-1.83ZM242,63.16l56,26.45v1.56l-11.59,11.59c-.78.78-.78,2.05,0,2.83l10.97,10.97-55.37-26.15v-27.24ZM298,111.52l-7.35-7.35,7.35-7.35v14.7ZM302,96.82l7.35,7.35-7.35,7.35v-14.7ZM313.59,105.58c.78-.78.78-2.05,0-2.83l-11.59-11.59v-1.56l56-26.45v27.24l-55.37,26.15,10.97-10.97ZM300,32.24l55.42,27.71-55.42,26.17-55.42-26.17,55.42-27.71ZM32.84,508L165.57,136.36l-99.11,371.64h-33.62ZM238,567.64l-175.5-29.25,7.12-26.69c.57-.35.96-.98.96-1.7,0-.34-.1-.66-.25-.95L181.7,91.39l56.3-28.15v504.4ZM242,508V94.82l57.15,26.99s.02,0,.04.01c.09.04.19.07.29.1.04,0,.07.02.1.03.14.03.28.05.42.05s.29-.02.42-.05c.04,0,.07-.02.1-.03.1-.03.2-.06.29-.1.01,0,.02,0,.04-.01l57.15-26.99v413.18h-116ZM362,567.64V63.24l56.3,28.15,111.38,417.67c-.15.28-.25.6-.25.95,0,.72.38,1.35.96,1.7l7.12,26.69-175.5,29.25ZM533.54,508l-99.11-371.64,132.73,371.64h-33.62Z"/>
    </g>
  </g>
</svg>