<?xml version="1.0" standalone="no"?>
<!DOCTYPE svg PUBLIC "-//W3C//DTD SVG 1.1//EN" "http://www.w3.org/Graphics/SVG/1.1/DTD/svg11.dtd" >
<svg xmlns="http://www.w3.org/2000/svg" xmlns:xlink="http://www.w3.org/1999/xlink" version="1.1">
<metadata>
Created by FontForge 20201107 at Fri May 14 16:26:10 2010
 By Unknown
Copyright (c) 2010 by Eduardo Manso. All rights reserved.
</metadata>
<defs>
<font id="ABCText-Bd" horiz-adv-x="508" >
  <font-face 
    font-family="ABCText Bd"
    font-weight="700"
    font-stretch="normal"
    units-per-em="1000"
    panose-1="0 0 0 0 0 0 0 0 0 0"
    ascent="800"
    descent="-200"
    x-height="515"
    cap-height="679"
    bbox="-73.901 -177 1411 915"
    underline-thickness="50"
    underline-position="-100"
    stemh="76"
    stemv="168"
    unicode-range="U+0020-FB02"
  />
<missing-glyph horiz-adv-x="501" 
d="M290 336l123 -245h-84l-78 168l-81 -168h-85l124 245l-124 245h85l81 -168l78 168h84zM50 612v67h401v-67h-401zM50 0v67h401v-67h-401z" />
    <glyph glyph-name="fi" unicode="fi" horiz-adv-x="753" 
d="M579 573h-100c0 5 0 53 -11 76c0 0 -27 12 -59 12c-126 0 -135 -88 -135 -146v-3h182c87 0 143 13 143 13h67v-456l62 -22v-47h-292v47l62 22v373h-224v-373l84 -22v-47h-324v47l72 22v373h-72v55l72 14v3c0 167 139 220 310 220c77 0 153 -17 184 -30
c0 -63 -21 -131 -21 -131z" />
    <glyph glyph-name="fl" unicode="fl" horiz-adv-x="763" 
d="M676 734v-665l62 -22v-47h-292v47l62 22v576c-22 7 -59 16 -99 16c-126 0 -135 -81 -135 -145v-4h126v-70h-126v-373l84 -22v-47h-324v47l72 22v373h-72v55l72 14v5c0 167 137 218 310 218c48 0 96 -5 132 -12l61 12h67z" />
    <glyph glyph-name=".notdef" horiz-adv-x="501" 
d="M290 336l123 -245h-84l-78 168l-81 -168h-85l124 245l-124 245h85l81 -168l78 168h84zM50 612v67h401v-67h-401zM50 0v67h401v-67h-401z" />
    <glyph glyph-name="Eth" unicode="&#xd0;" horiz-adv-x="789" 
d="M43 316v76h67v218l-70 22v47h345c224 0 364 -121 364 -336c0 -214 -147 -343 -368 -343h-341v47l70 22v247h-67zM376 603h-86v-211h86v-76h-86v-240h100c123 0 169 100 169 262c0 164 -66 265 -183 265z" />
    <glyph glyph-name="eth" unicode="&#xf0;" horiz-adv-x="595" 
d="M467 651l-52 -23c97 -99 147 -236 147 -368c0 -169 -109 -270 -267 -270c-161 0 -262 95 -262 264c0 171 109 271 268 271c18 0 35 -2 52 -6c-10 24 -21 46 -34 66l-64 -28l-24 53l52 23c-19 23 -39 43 -58 60l33 41c40 -16 77 -38 109 -63l75 34zM301 66
c64 0 85 61 85 191c0 132 -27 193 -91 193c-65 0 -86 -61 -86 -193c0 -130 27 -191 92 -191z" />
    <glyph glyph-name="Lslash" unicode="&#x141;" horiz-adv-x="637" 
d="M110 610l-70 22v47h320v-47l-70 -22v-135l75 50v-95l-75 -50v-304h208c23 73 59 135 59 135l50 -10s-11 -90 -11 -135v-66h-556v47l70 22v193l-73 -48v95l73 48v253z" />
    <glyph glyph-name="lslash" unicode="&#x142;" horiz-adv-x="348" 
d="M261 734v-259l76 50v-95l-76 -50v-311l62 -22v-47h-292v47l62 22v200l-84 -55v95l84 55v276l-63 11v50l164 33h67z" />
    <glyph glyph-name="Scaron" unicode="&#x160;" horiz-adv-x="609" 
d="M327 735h-46l-137 140l35 40l125 -74l125 74l35 -40zM50 41v60c0 35 -15 115 -15 115l65 16s39 -49 64 -124c45 -25 87 -35 124 -35c74 0 114 40 114 107c0 33 -18 63 -65 78l-118 39c-94 31 -153 95 -153 193c0 142 124 198 254 198c78 0 146 -21 223 -30v-56
c0 -40 14 -104 14 -104l-56 -16s-35 34 -61 97c-32 17 -66 29 -121 29c-63 0 -93 -34 -93 -80c0 -28 13 -49 51 -62l112 -37c128 -42 185 -105 185 -216c0 -118 -99 -223 -270 -223c-93 0 -174 16 -254 51z" />
    <glyph glyph-name="scaron" unicode="&#x161;" horiz-adv-x="479" 
d="M266 571h-46l-137 140l35 40l125 -74l125 74l35 -40zM38 35v49c0 30 -12 82 -12 82l63 14s21 -37 36 -79c33 -24 64 -37 98 -37c54 0 75 25 75 61c0 20 -11 40 -46 53l-75 28c-79 29 -125 75 -125 157c0 114 105 162 197 162c70 0 130 -23 178 -23v-50
c0 -26 13 -73 13 -73l-57 -15s-21 26 -38 61c-20 14 -44 27 -82 27c-41 0 -61 -19 -61 -49c0 -21 11 -35 41 -46l69 -26c91 -34 140 -79 140 -161c0 -110 -88 -180 -211 -180c-72 0 -139 17 -203 45z" />
    <glyph glyph-name="Yacute" unicode="&#xdd;" horiz-adv-x="695" 
d="M191 47l70 22v201l-205 341l-61 22v46h328v-46l-66 -21l133 -238h1l134 238l-65 21v46h240v-46l-62 -22l-197 -340v-202l70 -22v-47h-320v47zM462 914h19l73 -85l-184 -94l-35 40z" />
    <glyph glyph-name="yacute" unicode="&#xfd;" horiz-adv-x="587" 
d="M170 -95c22 0 57 2 89 82l-216 460l-48 22v46h282v-47l-45 -21l105 -268h4l95 269l-40 21v46h196v-46l-51 -22l-172 -438c-53 -134 -128 -186 -221 -186c-29 0 -61 5 -89 16c-15 63 15 134 15 134h83s2 -48 13 -68zM414 750h19l73 -85l-184 -94l-35 40z" />
    <glyph glyph-name="HT" horiz-adv-x="0" 
 />
    <glyph glyph-name="LF" horiz-adv-x="0" 
 />
    <glyph glyph-name="Thorn" unicode="&#xde;" horiz-adv-x="692" 
d="M328 189h29c75 0 118 51 118 147c0 88 -39 136 -117 136h-68v-403l84 -22v-47h-334v47l70 22v541l-70 22v47h320v-47l-70 -22v-62h93c158 0 279 -63 279 -209c0 -134 -115 -219 -239 -219c-32 0 -60 6 -95 17v52z" />
    <glyph glyph-name="thorn" unicode="&#xfe;" horiz-adv-x="646" 
d="M263 734v-273c38 35 93 64 153 64c84 0 197 -46 197 -255c0 -171 -107 -280 -265 -280c-33 0 -61 5 -85 13v-101c27 -7 58 -16 84 -22v-47h-324v47l72 22v731c-23 4 -52 7 -73 11v47l174 43h67zM334 414c-23 0 -53 -8 -71 -22v-277c23 -28 52 -49 89 -49
c64 0 85 57 85 191c0 120 -41 157 -103 157z" />
    <glyph glyph-name="CR" horiz-adv-x="0" 
 />
    <glyph glyph-name="Zcaron" unicode="&#x17d;" horiz-adv-x="650" 
d="M348 735h-46l-137 140l35 40l125 -74l125 74l35 -40zM597 679v-62l-344 -541h251c20 71 66 145 66 145l55 -10s-11 -75 -11 -137v-74h-589v51l353 552h-209c-13 -61 -70 -142 -70 -142l-51 11s11 83 11 138v69h538z" />
    <glyph glyph-name="zcaron" unicode="&#x17e;" horiz-adv-x="520" 
d="M283 571h-46l-137 140l35 40l125 -74l125 74l35 -40zM478 515v-56l-254 -393h168c22 61 64 123 64 123l44 -11s-11 -76 -11 -122v-56h-462v56l261 393h-129c-17 -49 -66 -103 -66 -103l-43 14s11 64 11 99v56h417z" />
    <glyph glyph-name="DLE" horiz-adv-x="0" 
 />
    <glyph glyph-name="DC1" horiz-adv-x="0" 
 />
    <glyph glyph-name="DC2" horiz-adv-x="0" 
 />
    <glyph glyph-name="DC3" horiz-adv-x="0" 
 />
    <glyph glyph-name="DC4" horiz-adv-x="0" 
 />
    <glyph glyph-name="onehalf" unicode="&#xbd;" horiz-adv-x="641" 
d="M355 220l-25 21c15 32 57 83 139 83c66 0 108 -37 108 -95c0 -77 -69 -118 -140 -162v-2h102c12 40 41 53 41 53l21 -12s-6 -34 -6 -78v-28h-263l-5 40c47 37 142 116 142 178c0 26 -18 35 -42 35c-26 0 -56 -16 -72 -33zM94 367v197h-5c-35 0 -49 21 -49 21v27
s87 7 134 38l26 -8v-274l45 -15v-28h-194v28zM120 0h-68l446 639h67z" />
    <glyph glyph-name="onequarter" unicode="&#xbc;" horiz-adv-x="605" 
d="M268 77v23l160 219h74v-199h36v-43h-36v-38l33 -11v-28h-179v28l39 11v38h-127zM393 201l-59 -81h61v81h-2zM94 367v197h-5c-35 0 -49 21 -49 21v27s87 7 134 38l26 -8v-274l45 -15v-28h-194v28zM120 0h-68l446 639h67z" />
    <glyph glyph-name="onesuperior" unicode="&#xb9;" horiz-adv-x="285" 
d="M94 367v197h-5c-35 0 -49 21 -49 21v27s87 7 134 38l26 -8v-274l45 -15v-28h-194v28z" />
    <glyph glyph-name="threequarters" unicode="&#xbe;" horiz-adv-x="633" 
d="M296 77v23l160 219h74v-199h36v-43h-36v-38l33 -11v-28h-179v28l39 11v38h-127zM421 201l-59 -81h61v81h-2zM117 513c32 3 61 9 61 43c0 25 -19 35 -46 35c-31 0 -58 -15 -74 -30l-17 25c17 29 54 63 134 63c69 0 108 -31 108 -74c0 -45 -34 -64 -76 -71v-1
c50 -4 91 -27 91 -81c0 -75 -77 -102 -142 -102c-55 0 -97 15 -116 28c0 41 18 68 21 71h35s-4 -30 6 -49c7 -3 20 -7 39 -7c29 0 49 16 49 47c0 52 -38 58 -78 65zM148 0h-68l446 639h67z" />
    <glyph glyph-name="threesuperior" unicode="&#xb3;" horiz-adv-x="338" 
d="M117 513c32 3 61 9 61 43c0 25 -19 35 -46 35c-31 0 -58 -15 -74 -30l-17 25c17 29 54 63 134 63c69 0 108 -31 108 -74c0 -45 -34 -64 -76 -71v-1c50 -4 91 -27 91 -81c0 -75 -77 -102 -142 -102c-55 0 -97 15 -116 28c0 41 18 68 21 71h35s-4 -30 6 -49
c7 -3 20 -7 39 -7c29 0 49 16 49 47c0 52 -38 58 -78 65z" />
    <glyph glyph-name="twosuperior" unicode="&#xb2;" horiz-adv-x="354" 
d="M68 545l-25 21c15 32 57 83 139 83c66 0 108 -37 108 -95c0 -77 -69 -118 -140 -162v-2h102c12 40 41 53 41 53l21 -12s-6 -34 -6 -78v-28h-263l-5 40c47 37 142 116 142 178c0 26 -18 35 -42 35c-26 0 -56 -16 -72 -33z" />
    <glyph glyph-name="brokenbar" unicode="&#xa6;" horiz-adv-x="255" 
d="M175 -123h-95v354h95v-354zM175 370h-95v354h95v-354z" />
    <glyph glyph-name="minus" unicode="&#x2212;" 
d="M40 243v95h428v-95h-428z" />
    <glyph glyph-name="multiply" unicode="&#xd7;" horiz-adv-x="451" 
d="M107 101l-67 68l118 118l-117 117l67 67l117 -117l118 117l67 -67l-117 -117l118 -118l-67 -68l-119 118z" />
    <glyph glyph-name="RS" horiz-adv-x="0" 
 />
    <glyph glyph-name="US" horiz-adv-x="0" 
 />
    <glyph glyph-name="space" unicode=" " horiz-adv-x="213" 
 />
    <glyph glyph-name="exclam" unicode="!" horiz-adv-x="322" 
d="M178 225h-35l-78 394c8 47 51 70 97 70c41 0 86 -22 95 -70zM72 76c0 49 36 88 91 88c58 0 93 -39 93 -88c0 -47 -35 -86 -93 -86c-55 0 -91 39 -91 86z" />
    <glyph glyph-name="quotedbl" unicode="&#x22;" horiz-adv-x="369" 
d="M129 439h-57l-42 189c0 36 33 61 69 61c38 0 73 -25 73 -61zM296 439h-57l-42 189c0 36 33 61 69 61c38 0 73 -25 73 -61z" />
    <glyph glyph-name="numbersign" unicode="#" horiz-adv-x="578" 
d="M80 300v78h105l45 137h102l-45 -137h82l45 137h102l-45 -137h67v-78h-92l-27 -83h79v-78h-105l-45 -139h-102l45 139h-82l-45 -139h-102l45 139h-67v78h93l27 83h-80zM262 300l-27 -83h82l27 83h-82z" />
    <glyph glyph-name="dollar" unicode="$" horiz-adv-x="634" 
d="M70 41v60c0 35 -15 115 -15 115l65 16s40 -50 65 -126c35 -20 68 -30 98 -33v183l-54 18c-91 30 -148 86 -148 185c0 115 93 174 202 187v64h77v-62c62 -5 119 -21 183 -29v-56c0 -40 14 -104 14 -104l-56 -16s-35 35 -62 99c-23 12 -47 22 -79 25v-152l39 -13
c123 -41 180 -89 180 -199c0 -113 -80 -196 -219 -210v-61h-77v59c-77 3 -145 19 -213 50zM412 167c0 25 -13 47 -52 63v-147c35 14 52 42 52 84zM231 499c0 -25 13 -45 52 -59v123c-35 -11 -52 -35 -52 -64z" />
    <glyph glyph-name="percent" unicode="%" horiz-adv-x="751" 
d="M195 371c23 0 32 41 32 113c0 74 -11 116 -35 116s-33 -42 -33 -116c0 -72 11 -113 36 -113zM195 649c85 0 141 -56 141 -162c0 -104 -58 -166 -144 -166s-142 58 -142 161c0 105 58 167 145 167zM261 0h-88l315 639h87zM560 318c85 0 141 -56 141 -162
c0 -104 -58 -166 -144 -166s-142 58 -142 161c0 105 58 167 145 167zM560 40c23 0 32 41 32 113c0 74 -11 116 -35 116s-33 -42 -33 -116c0 -72 11 -113 36 -113z" />
    <glyph glyph-name="ampersand" unicode="&#x26;" horiz-adv-x="746" 
d="M550 0c-26 14 -54 31 -83 51c-48 -38 -110 -61 -188 -61c-133 0 -263 43 -263 193c0 105 89 158 151 183c-27 50 -42 100 -42 147c0 134 117 176 204 176c126 0 180 -66 180 -148c0 -94 -77 -140 -147 -161c17 -23 37 -47 58 -70c27 -30 57 -60 88 -88
c24 40 45 90 64 155l47 -11c-6 -62 -23 -131 -54 -193c64 -53 129 -98 181 -125v-48h-196zM273 222c-26 28 -49 55 -68 82c-13 -17 -22 -39 -22 -71c0 -113 79 -130 131 -130c25 0 49 3 72 11c-38 32 -77 68 -113 108zM290 548c0 -33 12 -70 33 -108c28 25 54 62 54 113
c0 45 -19 69 -44 69c-31 0 -43 -26 -43 -74z" />
    <glyph glyph-name="quotesingle" unicode="'" horiz-adv-x="202" 
d="M129 439h-57l-42 189c0 36 33 61 69 61c38 0 73 -25 73 -61z" />
    <glyph glyph-name="parenleft" unicode="(" horiz-adv-x="320" 
d="M290 -102l-41 -36c-102 91 -209 217 -209 430c0 209 107 331 209 418l41 -36c-68 -78 -125 -201 -125 -382c0 -185 57 -312 125 -394z" />
    <glyph glyph-name="parenright" unicode=")" horiz-adv-x="320" 
d="M71 -138l-41 36c68 82 125 209 125 394c0 181 -57 304 -125 382l41 36c102 -87 209 -209 209 -418c0 -213 -107 -339 -209 -430z" />
    <glyph glyph-name="asterisk" unicode="*" horiz-adv-x="469" 
d="M310 319l-75 103l-76 -103l-50 22l53 126l-127 16v53l127 13l-52 120l50 21l75 -103l73 103l50 -21l-51 -120l127 -13v-53l-128 -16l53 -126zM209 507c0 -16 12 -28 28 -28s28 12 28 28s-12 28 -28 28s-28 -12 -28 -28z" />
    <glyph glyph-name="plus" unicode="+" 
d="M40 243v95h167v166h95v-166h166v-95h-166v-167h-95v167h-167z" />
    <glyph glyph-name="comma" unicode="," horiz-adv-x="274" 
d="M45 76c0 49 36 88 91 88c58 0 93 -41 93 -90c0 -112 -99 -170 -193 -195l-19 35s55 42 75 85c-30 14 -47 44 -47 77z" />
    <glyph glyph-name="hyphen" unicode="-" horiz-adv-x="325" 
d="M40 227v95h245v-95h-245z" />
    <glyph glyph-name="period" unicode="." horiz-adv-x="274" 
d="M45 76c0 49 36 88 91 88c58 0 93 -39 93 -88c0 -47 -35 -86 -93 -86c-55 0 -91 39 -91 86z" />
    <glyph glyph-name="slash" unicode="/" horiz-adv-x="418" 
d="M86 -167h-96l292 891h96z" />
    <glyph glyph-name="zero" unicode="0" horiz-adv-x="605" 
d="M305 649c161 0 265 -113 265 -326c0 -208 -108 -333 -269 -333c-162 0 -266 115 -266 323c0 211 109 336 270 336zM305 70c62 0 87 91 87 248c0 159 -29 253 -91 253c-63 0 -88 -94 -88 -253c0 -157 29 -248 92 -248z" />
    <glyph glyph-name="one" unicode="1" horiz-adv-x="450" 
d="M153 75v445h-10c-82 0 -113 10 -113 10v45s139 14 234 75l63 -15v-559l103 -29v-47h-377v47z" />
    <glyph glyph-name="two" unicode="2" horiz-adv-x="578" 
d="M95 441l-51 37c29 67 116 171 267 171c129 0 211 -75 211 -191c0 -140 -159 -253 -318 -352v-5h241c23 58 64 95 64 95l44 -14s-12 -70 -12 -111v-71h-502l-9 66c103 83 314 241 314 380c0 58 -39 84 -88 84c-68 0 -123 -34 -161 -89z" />
    <glyph glyph-name="three" unicode="3" horiz-adv-x="548" 
d="M194 370c66 5 121 22 121 97c0 54 -45 76 -97 76c-59 0 -120 -33 -151 -65l-38 32c29 68 118 139 248 139c133 0 209 -64 209 -154c0 -72 -65 -115 -126 -136v-3c80 -21 158 -69 158 -161c0 -129 -105 -205 -256 -205c-97 0 -198 29 -237 57c0 76 33 125 40 131h58
s0 -58 14 -89c17 -9 52 -23 98 -23c61 0 105 34 105 115c0 99 -79 119 -161 129z" />
    <glyph glyph-name="four" unicode="4" horiz-adv-x="613" 
d="M20 156v59l306 424h164v-403h76v-80h-76v-87l70 -22v-47h-324v47l80 22v87h-296zM313 488l-179 -252h182v252h-3z" />
    <glyph glyph-name="five" unicode="5" horiz-adv-x="538" 
d="M67 297l20 342h379l-12 -130h-291l-7 -111c27 2 54 3 76 3c147 0 276 -53 276 -192c0 -148 -113 -219 -278 -219c-89 0 -163 29 -193 57c0 76 33 125 40 131h58s0 -58 14 -89c11 -7 36 -24 78 -24c59 0 106 35 106 126c0 86 -81 107 -155 107c-33 0 -72 -3 -101 -11z" />
    <glyph glyph-name="six" unicode="6" horiz-adv-x="588" 
d="M532 572l-30 -47s-45 36 -124 36c-115 0 -150 -96 -161 -184c29 19 66 31 115 31c136 0 226 -74 226 -197c0 -139 -120 -221 -256 -221c-174 0 -267 91 -267 291c0 229 112 368 304 368c131 0 193 -75 193 -77zM295 318c-35 0 -62 -11 -83 -29v-1c0 -167 26 -222 94 -222
c46 0 76 48 76 136c0 87 -32 116 -87 116z" />
    <glyph glyph-name="seven" unicode="7" horiz-adv-x="525" 
d="M500 639v-100l-276 -539h-131v34l297 485h-257c-19 -52 -61 -103 -61 -103l-52 11s11 96 11 141v71h469z" />
    <glyph glyph-name="eight" unicode="8" horiz-adv-x="569" 
d="M32 157c0 54 31 119 120 150c-56 40 -89 96 -89 167c0 114 103 174 223 174c140 0 215 -70 215 -150c0 -71 -45 -110 -103 -132c102 -50 143 -110 143 -186c0 -109 -95 -190 -256 -190c-141 0 -253 44 -253 167zM315 233l-96 39c-30 -31 -39 -70 -39 -114
c0 -50 39 -91 109 -91c65 0 97 34 97 88c0 30 -20 57 -71 78zM212 497c0 -32 18 -58 53 -73l60 -26c19 20 35 48 35 94c0 37 -24 81 -75 81c-50 0 -73 -32 -73 -76z" />
    <glyph glyph-name="nine" unicode="9" horiz-adv-x="588" 
d="M56 67l30 47s45 -36 124 -36c114 0 150 95 161 183c-30 -19 -67 -30 -115 -30c-136 0 -226 74 -226 197c0 139 120 221 256 221c174 0 267 -86 267 -286c0 -229 -112 -373 -304 -373c-131 0 -193 75 -193 77zM293 321c34 0 62 11 83 28v2c0 167 -26 222 -94 222
c-46 0 -76 -48 -76 -136c0 -87 32 -116 87 -116z" />
    <glyph glyph-name="colon" unicode=":" horiz-adv-x="274" 
d="M45 438c0 49 36 88 91 88c58 0 93 -39 93 -88c0 -47 -35 -86 -93 -86c-55 0 -91 39 -91 86zM45 76c0 49 36 88 91 88c58 0 93 -39 93 -88c0 -47 -35 -86 -93 -86c-55 0 -91 39 -91 86z" />
    <glyph glyph-name="semicolon" unicode=";" horiz-adv-x="274" 
d="M45 76c0 49 36 88 91 88c58 0 93 -41 93 -90c0 -112 -99 -170 -193 -195l-19 35s55 42 75 85c-30 14 -47 44 -47 77zM45 438c0 49 36 88 91 88c58 0 93 -39 93 -88c0 -47 -35 -86 -93 -86c-55 0 -91 39 -91 86z" />
    <glyph glyph-name="less" unicode="&#x3c;" 
d="M40 263v67l428 173v-103l-274 -102l274 -107v-102z" />
    <glyph glyph-name="equal" unicode="=" 
d="M40 348v95h428v-95h-428zM40 183v95h428v-95h-428z" />
    <glyph glyph-name="greater" unicode="&#x3e;" 
d="M468 330v-67l-428 -174v102l274 107l-274 102v103z" />
    <glyph glyph-name="question" unicode="?" horiz-adv-x="519" 
d="M42 610c30 31 98 79 219 79c131 0 228 -64 228 -177c0 -124 -103 -188 -205 -214l-31 -73h-65l-63 140c61 16 191 37 191 154c0 73 -51 91 -100 91c-21 0 -40 -5 -57 -13c-26 -55 -33 -106 -33 -106h-65s-26 59 -19 119zM132 76c0 49 36 88 91 88c58 0 93 -39 93 -88
c0 -47 -35 -86 -93 -86c-55 0 -91 39 -91 86z" />
    <glyph glyph-name="at" unicode="@" horiz-adv-x="939" 
d="M697 501l-48 -276c-7 -39 -15 -84 28 -84c53 0 112 67 112 216c0 139 -92 264 -276 264c-214 0 -358 -161 -358 -379c0 -265 243 -289 322 -289c81 0 141 11 194 26l15 -51c-56 -25 -131 -44 -219 -44c-106 0 -412 31 -412 358c0 257 184 447 458 447
c252 0 376 -158 376 -332c0 -216 -145 -290 -253 -290c-123 0 -138 60 -138 97v11l-4 1c-28 -52 -70 -95 -137 -95c-53 0 -120 36 -120 156c0 164 101 271 241 271c53 0 91 -14 121 -33l76 30zM430 175c36 0 68 76 81 146l20 114c-10 13 -23 22 -41 22
c-44 0 -91 -68 -91 -218c0 -39 12 -64 31 -64z" />
    <glyph glyph-name="A" unicode="A" horiz-adv-x="735" 
d="M304 679l121 10l255 -621l60 -22v-46h-323v46l66 21l-53 134h-210l-51 -134l65 -21v-46h-239v46l63 22zM403 270l-76 196h-7l-74 -196h157z" />
    <glyph glyph-name="B" unicode="B" horiz-adv-x="707" 
d="M401 0h-361v47l70 22v541l-70 22v47h329c157 0 274 -49 274 -173c0 -79 -55 -122 -142 -145v-3c102 -19 176 -65 176 -164c0 -132 -119 -194 -276 -194zM374 319h-84v-244h82c81 0 122 40 122 117c0 78 -40 127 -120 127zM342 604h-52v-210h50c81 0 122 39 122 108
c0 67 -40 102 -120 102z" />
    <glyph glyph-name="C" unicode="C" horiz-adv-x="646" 
d="M621 179c-22 -75 -96 -189 -260 -189c-199 0 -331 119 -331 340c0 230 154 359 361 359c87 0 142 -22 193 -22v-79c0 -40 15 -104 15 -104l-56 -16s-48 42 -74 124c-19 10 -42 15 -78 15c-106 0 -172 -88 -172 -264c0 -152 80 -228 176 -228c104 0 150 41 188 87z" />
    <glyph glyph-name="D" unicode="D" horiz-adv-x="789" 
d="M110 610l-70 22v47h345c224 0 364 -121 364 -336c0 -214 -147 -343 -368 -343h-341v47l70 22v541zM376 603h-86v-527h100c123 0 169 100 169 262c0 164 -66 265 -183 265z" />
    <glyph glyph-name="E" unicode="E" horiz-adv-x="660" 
d="M110 610l-70 22v47h556v-56c0 -45 11 -125 11 -125l-50 -10s-36 42 -59 115h-208v-222l169 2l20 47h53v-168h-49l-23 47l-170 2v-235h231c23 73 59 125 59 125l50 -10s-11 -90 -11 -135v-56h-579v47l70 22v541z" />
    <glyph glyph-name="F" unicode="F" horiz-adv-x="632" 
d="M110 610l-70 22v47h556v-56c0 -45 11 -125 11 -125l-50 -10s-36 42 -59 115h-208v-240l169 2l20 57h53v-188h-49l-23 57l-170 2v-224l80 -22v-47h-330v47l70 22v541z" />
    <glyph glyph-name="G" unicode="G" horiz-adv-x="710" 
d="M415 689c91 0 172 -22 225 -22v-79c0 -40 15 -104 15 -104l-56 -16s-45 40 -72 117c-30 15 -64 23 -111 23c-117 0 -186 -102 -186 -276c0 -168 81 -260 182 -260c18 0 34 1 49 3v169l-48 21v45h257v-44l-38 -22v-160l35 -11v-43c-54 -20 -157 -40 -263 -40
c-200 0 -364 112 -364 335c0 239 168 364 375 364z" />
    <glyph glyph-name="H" unicode="H" horiz-adv-x="815" 
d="M525 610l-70 22v47h320v-47l-70 -22v-541l70 -22v-47h-320v47l70 22v245h-235v-245l70 -22v-47h-320v47l70 22v541l-70 22v47h320v-47l-70 -22v-218h235v218z" />
    <glyph glyph-name="I" unicode="I" horiz-adv-x="400" 
d="M110 610l-70 22v47h320v-47l-70 -22v-541l70 -22v-47h-320v47l70 22v541z" />
    <glyph glyph-name="J" unicode="J" horiz-adv-x="375" 
d="M280 610v-662c-83 -89 -174 -125 -291 -125c-19 0 -39 1 -60 3c-9 43 5 106 14 137h86s1 -45 12 -67c8 3 38 13 59 42v672l-70 22v47h320v-47z" />
    <glyph glyph-name="K" unicode="K" horiz-adv-x="750" 
d="M110 610l-70 22v47h320v-47l-70 -22v-237h35l196 241l-57 19v46h243v-46l-65 -22l-188 -220l163 -238c66 -96 128 -106 128 -106v-47h-196c-44 20 -78 65 -92 86l-143 214h-24v-231l70 -22v-47h-320v47l70 22v541z" />
    <glyph glyph-name="L" unicode="L" horiz-adv-x="637" 
d="M110 610l-70 22v47h320v-47l-70 -22v-534h208c23 73 59 135 59 135l50 -10s-11 -90 -11 -135v-66h-556v47l70 22v541z" />
    <glyph glyph-name="M" unicode="M" horiz-adv-x="930" 
d="M108 612l-68 21v46h262l170 -419h2l160 419h256v-46l-68 -21v-545l68 -21v-46h-313v46l68 21v371h-3s-9 -42 -25 -84l-124 -322h-109l-134 307c-23 53 -33 99 -33 99h-3v-371l67 -21v-46h-241v46l68 21v545z" />
    <glyph glyph-name="N" unicode="N" horiz-adv-x="766" 
d="M558 612l-67 21v46h245v-46l-68 -21v-612h-87l-363 423v-356c24 -7 44 -16 67 -21v-46h-245v46l68 21v545l-68 21v46h202l316 -365v298z" />
    <glyph glyph-name="O" unicode="O" horiz-adv-x="753" 
d="M379 689c196 0 334 -125 334 -346c0 -220 -145 -353 -338 -353c-196 0 -335 124 -335 343c0 223 145 356 339 356zM370 608c-103 0 -140 -100 -140 -270c0 -168 54 -267 154 -267c102 0 139 99 139 267c0 170 -54 270 -153 270z" />
    <glyph glyph-name="P" unicode="P" horiz-adv-x="692" 
d="M110 610l-70 22v47h343c158 0 279 -66 279 -219c0 -140 -115 -229 -239 -229c-32 0 -60 6 -95 17v52h29c75 0 118 55 118 157c0 95 -39 146 -117 146h-68v-534l84 -22v-47h-334v47l70 22v541z" />
    <glyph glyph-name="Q" unicode="Q" horiz-adv-x="753" 
d="M507 10l44 -41c33 -30 82 -65 147 -80v-46h-194c-49 20 -74 44 -103 75l-72 74c-171 18 -289 139 -289 341c0 223 145 356 339 356c196 0 334 -125 334 -346c0 -166 -83 -283 -206 -330v-3zM370 608c-103 0 -140 -100 -140 -270c0 -168 54 -267 154 -267
c102 0 139 99 139 267c0 170 -54 270 -153 270z" />
    <glyph glyph-name="R" unicode="R" horiz-adv-x="735" 
d="M730 47v-47h-208c-31 13 -63 45 -88 99l-84 182h-61v-212l67 -22v-47h-316v47l70 22v541l-70 22v47h348c151 0 264 -58 264 -190c0 -91 -52 -144 -126 -172v-7l67 -136c60 -123 137 -127 137 -127zM289 603v-249h110c29 17 66 52 66 132s-45 117 -122 117h-54z" />
    <glyph glyph-name="S" unicode="S" horiz-adv-x="609" 
d="M50 41v60c0 35 -15 115 -15 115l65 16s39 -49 64 -124c45 -25 87 -35 124 -35c74 0 114 40 114 107c0 33 -18 63 -65 78l-118 39c-94 31 -153 95 -153 193c0 142 124 198 254 198c78 0 146 -21 223 -30v-56c0 -40 14 -104 14 -104l-56 -16s-35 34 -61 97
c-32 17 -66 29 -121 29c-63 0 -93 -34 -93 -80c0 -28 13 -49 51 -62l112 -37c128 -42 185 -105 185 -216c0 -118 -99 -223 -270 -223c-93 0 -174 16 -254 51z" />
    <glyph glyph-name="T" unicode="T" horiz-adv-x="648" 
d="M114 603c-23 -73 -59 -125 -59 -125l-50 10s11 90 11 135v56h616v-56c0 -45 11 -135 11 -135l-50 -10s-36 52 -59 125h-120v-534l70 -22v-47h-320v47l70 22v534h-120z" />
    <glyph glyph-name="U" unicode="U" horiz-adv-x="780" 
d="M575 187v423l-70 22v47h250v-47l-70 -22v-478c-44 -83 -129 -142 -280 -142s-261 56 -305 149v471l-70 22v47h320v-47l-70 -22v-423c0 -79 64 -116 147 -116c81 0 148 35 148 116z" />
    <glyph glyph-name="V" unicode="V" horiz-adv-x="725" 
d="M432 -10h-119l-258 621l-60 22v46h325v-46l-66 -21l157 -390h2l141 390l-65 21v46h241v-46l-63 -22z" />
    <glyph glyph-name="W" unicode="W" horiz-adv-x="1104" 
d="M412 -10h-119l-238 621l-60 22v46h325v-46l-66 -21l127 -390h6l108 332l-30 80l69 45h118l148 -457h6l127 390l-65 21v46h241v-46l-63 -22l-215 -621h-119l-158 411z" />
    <glyph glyph-name="X" unicode="X" horiz-adv-x="724" 
d="M404 0v46l50 18l-130 187l-140 -186l49 -19v-46h-233v46l60 22l210 261l-197 284l-63 20v46h316v-46l-47 -16l116 -169l136 167l-56 19v45h235v-46l-60 -22l-204 -238l213 -309l65 -18v-46h-320z" />
    <glyph glyph-name="Y" unicode="Y" horiz-adv-x="695" 
d="M191 47l70 22v201l-205 341l-61 22v46h328v-46l-66 -21l133 -238h1l134 238l-65 21v46h240v-46l-62 -22l-197 -340v-202l70 -22v-47h-320v47z" />
    <glyph glyph-name="Z" unicode="Z" horiz-adv-x="650" 
d="M597 679v-62l-344 -541h251c20 71 66 145 66 145l55 -10s-11 -75 -11 -137v-74h-589v51l353 552h-209c-13 -61 -70 -142 -70 -142l-51 11s11 83 11 138v69h538z" />
    <glyph glyph-name="bracketleft" unicode="[" horiz-adv-x="348" 
d="M308 -124h-218v848h218v-70h-89v-709h89v-69z" />
    <glyph glyph-name="backslash" unicode="\" horiz-adv-x="418" 
d="M428 -167h-96l-292 891h96z" />
    <glyph glyph-name="bracketright" unicode="]" horiz-adv-x="348" 
d="M258 -124h-218v69h89v709h-89v70h218v-848z" />
    <glyph glyph-name="asciicircum" unicode="^" horiz-adv-x="440" 
d="M400 366h-100l-82 206l-79 -206h-99l130 313h97z" />
    <glyph glyph-name="underscore" unicode="_" horiz-adv-x="513" 
d="M0 -158v78h519v-78h-519z" />
    <glyph glyph-name="grave" unicode="`" horiz-adv-x="295" 
d="M116 750h19l127 -139l-35 -40l-184 94z" />
    <glyph glyph-name="a" unicode="a" horiz-adv-x="573" 
d="M277 525c137 0 212 -61 212 -191c0 -73 -3 -121 -3 -227c0 -25 9 -34 22 -34c16 0 35 12 50 24l27 -37c-35 -48 -85 -70 -148 -70c-57 0 -92 23 -107 62c-32 -32 -78 -62 -141 -62c-77 0 -149 35 -149 136v60c68 76 202 110 283 127v24c0 72 -20 113 -84 113
c-22 0 -41 -7 -55 -14c-12 -37 -13 -96 -13 -96h-88s-28 41 -35 102c35 36 132 83 229 83zM256 91c22 0 47 8 65 21c0 46 1 89 1 134c-41 -11 -83 -24 -120 -50v-52c0 -38 25 -53 54 -53z" />
    <glyph glyph-name="b" unicode="b" horiz-adv-x="624" 
d="M241 734v-273c38 35 93 64 153 64c84 0 197 -46 197 -255c0 -171 -107 -280 -265 -280c-54 0 -95 13 -129 33l-78 -36l-46 13v640l-63 11v50l164 33h67zM312 414c-23 0 -53 -8 -71 -22v-277c23 -28 52 -49 89 -49c64 0 85 57 85 191c0 120 -41 157 -103 157z" />
    <glyph glyph-name="c" unicode="c" horiz-adv-x="502" 
d="M440 346h-77s1 45 -12 90c-13 7 -29 11 -48 11c-65 0 -101 -52 -101 -168c0 -137 57 -181 130 -181c42 0 84 18 126 50l29 -33c-33 -64 -97 -125 -197 -125c-154 0 -257 88 -257 264c0 170 122 271 264 271c69 0 136 -20 173 -52c-3 -74 -30 -127 -30 -127z" />
    <glyph glyph-name="d" unicode="d" horiz-adv-x="635" 
d="M551 734v-665l62 -22v-47h-215l-10 55h-4c-38 -36 -94 -65 -154 -65c-84 0 -197 46 -197 255c0 171 107 280 265 280c32 0 60 -5 85 -14v129l-63 11v50l164 33h67zM312 101c22 0 53 8 71 21v277c-24 28 -53 50 -89 50c-64 0 -85 -57 -85 -191c0 -120 41 -157 103 -157z
" />
    <glyph glyph-name="e" unicode="e" horiz-adv-x="526" 
d="M458 142l29 -33c-33 -61 -99 -119 -201 -119c-152 0 -253 88 -253 264c0 170 116 271 246 271c141 0 217 -98 217 -228v-57l-295 1c10 -108 62 -144 127 -144c44 0 86 16 130 45zM275 452c-63 0 -74 -85 -75 -146l138 7v3c0 84 -21 136 -63 136z" />
    <glyph glyph-name="f" unicode="f" horiz-adv-x="415" 
d="M439 588h-80c0 3 1 53 -11 76c0 0 -9 2 -19 2c-56 0 -55 -50 -55 -106v-48h126v-70h-126v-373l84 -22v-47h-324v47l72 22v373h-72v55l72 14v23c0 163 120 200 226 200c53 0 107 -14 128 -25c0 -58 -21 -121 -21 -121z" />
    <glyph glyph-name="g" unicode="g" horiz-adv-x="548" 
d="M526 535l6 -75c-30 -6 -61 -7 -91 -4l-1 -3c23 -16 55 -51 55 -99c0 -110 -96 -174 -223 -174c-51 0 -75 -9 -75 -26c0 -12 7 -19 27 -21l117 -10c130 -11 175 -52 192 -71v-67c0 -92 -111 -162 -270 -162c-177 0 -245 54 -245 117c0 34 24 67 69 84
c-24 18 -38 45 -38 81c0 57 48 84 105 96c-64 26 -104 77 -104 149c0 111 95 175 222 175c35 0 71 -6 103 -19c90 4 151 29 151 29zM275 244c50 0 69 45 69 108s-25 110 -75 110s-69 -47 -69 -110s25 -108 75 -108zM329 -23l-146 14c-15 1 -32 5 -32 5
c-10 -12 -12 -25 -12 -39c0 -35 49 -63 128 -63c80 0 119 21 119 52v16c-11 6 -24 12 -57 15z" />
    <glyph glyph-name="h" unicode="h" horiz-adv-x="652" 
d="M194 734h67v-274c38 36 93 65 153 65c84 0 158 -43 158 -170v-286l62 -22v-47h-278v47l48 22v273c0 32 -10 72 -72 72c-23 0 -53 -8 -71 -22v-323l47 -22v-47h-277v47l62 22v571l-63 11v50z" />
    <glyph glyph-name="i" unicode="i" horiz-adv-x="352" 
d="M86 654c0 45 29 80 91 80c64 0 93 -35 93 -80c0 -44 -29 -79 -93 -79c-62 0 -91 35 -91 79zM265 525v-456l62 -22v-47h-292v47l62 22v352l-63 11v50l164 43h67z" />
    <glyph glyph-name="j" unicode="j" horiz-adv-x="340" 
d="M97 -73v494l-73 11v50l174 43h67v-593c-46 -55 -137 -109 -257 -109c-23 0 -46 2 -70 6c-8 51 15 121 15 121h81s3 -37 16 -61c20 9 35 21 47 38zM86 654c0 45 29 80 91 80c64 0 93 -35 93 -80c0 -44 -29 -79 -93 -79c-62 0 -91 35 -91 79z" />
    <glyph glyph-name="k" unicode="k" horiz-adv-x="640" 
d="M261 734v-417h34l141 134l-47 19v45h210v-45l-53 -24l-125 -112l92 -150c43 -71 86 -124 132 -137v-47h-185c-40 20 -69 54 -96 104l-78 142h-25v-177l47 -22v-47h-277v47l62 22v571l-63 11v50l164 33h67z" />
    <glyph glyph-name="l" unicode="l" horiz-adv-x="348" 
d="M261 734v-665l62 -22v-47h-292v47l62 22v571l-63 11v50l164 33h67z" />
    <glyph glyph-name="m" unicode="m" horiz-adv-x="959" 
d="M198 525h63v-65h4c38 36 92 65 151 65c55 0 106 -20 134 -70h5c38 34 90 70 168 70c83 0 156 -43 156 -170v-286l62 -22v-47h-278v47l48 22v273c0 32 -10 72 -70 72c-20 0 -49 -7 -71 -24c1 -11 2 -23 2 -35v-286l47 -22v-47h-263v47l48 22v273c0 32 -10 72 -70 72
c-22 0 -52 -8 -69 -22v-323l47 -22v-47h-277v47l62 22v352l-63 11v50z" />
    <glyph glyph-name="n" unicode="n" horiz-adv-x="656" 
d="M198 525h63v-65h4c38 36 93 65 153 65c84 0 158 -43 158 -170v-286l62 -22v-47h-278v47l48 22v273c0 32 -10 72 -72 72c-23 0 -53 -8 -71 -22v-323l47 -22v-47h-277v47l62 22v352l-63 11v50z" />
    <glyph glyph-name="o" unicode="o" horiz-adv-x="595" 
d="M301 525c160 0 261 -94 261 -265c0 -169 -109 -270 -267 -270c-161 0 -262 95 -262 264c0 171 109 271 268 271zM301 66c64 0 85 61 85 191c0 132 -27 193 -91 193c-65 0 -86 -61 -86 -193c0 -130 27 -191 92 -191z" />
    <glyph glyph-name="p" unicode="p" horiz-adv-x="646" 
d="M259 525v-64h4c38 35 93 64 153 64c84 0 197 -46 197 -255c0 -171 -107 -280 -265 -280c-33 0 -61 5 -85 13v-101c27 -7 58 -16 84 -22v-47h-324v47l72 22v522c-23 4 -52 7 -73 11v47l174 43h63zM334 414c-23 0 -53 -8 -71 -22v-277c23 -28 52 -49 89 -49
c64 0 85 57 85 191c0 120 -41 157 -103 157z" />
    <glyph glyph-name="q" unicode="q" horiz-adv-x="626" 
d="M551 -98l72 -22v-47h-324v47l84 22v152c-38 -36 -94 -64 -153 -64c-84 0 -197 46 -197 255c0 171 107 280 265 280c53 0 94 -14 129 -34l78 37l46 -13v-613zM312 101c22 0 53 8 71 21v277c-24 28 -53 50 -89 50c-64 0 -85 -57 -85 -191c0 -120 41 -157 103 -157z" />
    <glyph glyph-name="r" unicode="r" horiz-adv-x="497" 
d="M462 347h-94s-5 48 -16 68c-36 -12 -61 -30 -77 -44v-302c27 -7 58 -16 84 -22v-47h-324v47l72 22v355c-23 4 -52 7 -73 11v47l174 43h63v-78h4c41 49 100 78 162 78c15 0 31 -2 46 -5c0 -94 -21 -173 -21 -173z" />
    <glyph glyph-name="s" unicode="s" horiz-adv-x="479" 
d="M38 35v49c0 30 -12 82 -12 82l63 14s21 -37 36 -79c33 -24 64 -37 98 -37c54 0 75 25 75 61c0 20 -11 40 -46 53l-75 28c-79 29 -125 75 -125 157c0 114 105 162 197 162c70 0 130 -23 178 -23v-50c0 -26 13 -73 13 -73l-57 -15s-21 26 -38 61c-20 14 -44 27 -82 27
c-41 0 -61 -19 -61 -49c0 -21 11 -35 41 -46l69 -26c91 -34 140 -79 140 -161c0 -110 -88 -180 -211 -180c-72 0 -139 17 -203 45z" />
    <glyph glyph-name="t" unicode="t" horiz-adv-x="436" 
d="M20 446v55l74 13l77 138h87v-137h126v-69h-126v-349c19 -18 43 -26 67 -26c28 0 57 11 82 28l29 -44c-48 -46 -109 -65 -168 -65c-67 0 -132 25 -177 64v392h-71z" />
    <glyph glyph-name="u" unicode="u" horiz-adv-x="646" 
d="M249 525v-384c4 -9 21 -40 68 -40c23 0 53 8 71 22v298l-63 11v50l164 43h67v-456l62 -22v-47h-215l-10 55h-5c-37 -36 -81 -65 -152 -65c-117 0 -146 74 -155 98v333l-63 11v50l164 43h67z" />
    <glyph glyph-name="v" unicode="v" horiz-adv-x="587" 
d="M358 -10h-105l-210 457l-48 22v46h282v-47l-45 -21l104 -268h1l99 269l-40 21v46h196v-46l-51 -22z" />
    <glyph glyph-name="w" unicode="w" horiz-adv-x="878" 
d="M333 -10h-105l-185 457l-48 22v46h268v-47l-35 -21l79 -262h6l75 251l-13 33l35 46h138l100 -330h6l79 263l-35 21v46h185v-46l-51 -22l-158 -457h-105l-128 314z" />
    <glyph glyph-name="x" unicode="x" horiz-adv-x="608" 
d="M321 0v47l40 18l-91 118l-101 -118l41 -20v-45h-203v45l51 24l162 179l-153 200l-47 21v46h292v-45l-37 -18l66 -87l78 85l-37 19v46h196v-45l-48 -24l-140 -145l180 -237l48 -18v-46h-297z" />
    <glyph glyph-name="y" unicode="y" horiz-adv-x="587" 
d="M170 -95c22 0 57 2 89 82l-216 460l-48 22v46h282v-47l-45 -21l105 -268h4l95 269l-40 21v46h196v-46l-51 -22l-172 -438c-53 -134 -128 -186 -221 -186c-29 0 -61 5 -89 16c-15 63 15 134 15 134h83s2 -48 13 -68z" />
    <glyph glyph-name="z" unicode="z" horiz-adv-x="520" 
d="M478 515v-56l-254 -393h168c22 61 64 123 64 123l44 -11s-11 -76 -11 -122v-56h-462v56l261 393h-129c-17 -49 -66 -103 -66 -103l-43 14s11 64 11 99v56h417z" />
    <glyph glyph-name="braceleft" unicode="{" horiz-adv-x="370" 
d="M99 33l10 133c6 82 -7 98 -74 104v61c67 6 80 22 74 104l-10 133c-9 117 55 166 177 166c17 0 35 -2 54 -4v-55l-26 -2c-38 -4 -68 -15 -63 -76l10 -119c11 -133 -40 -157 -149 -175v-5c109 -18 160 -42 149 -175l-10 -119c-5 -60 24 -72 62 -76l27 -2v-55
c-19 -2 -37 -4 -54 -4c-122 0 -186 49 -177 166z" />
    <glyph glyph-name="bar" unicode="|" horiz-adv-x="272" 
d="M182 -167h-92v891h92v-891z" />
    <glyph glyph-name="braceright" unicode="}" horiz-adv-x="370" 
d="M261 166l10 -133c9 -117 -55 -166 -177 -166c-17 0 -35 2 -54 4v55l27 2c38 4 67 16 62 76l-10 119c-11 133 40 157 149 175v5c-109 18 -160 42 -149 175l10 119c5 61 -25 72 -63 76l-26 2v55c19 2 37 4 54 4c122 0 186 -49 177 -166l-10 -133c-6 -82 7 -98 74 -104v-61
c-67 -6 -80 -22 -74 -104z" />
    <glyph glyph-name="asciitilde" unicode="~" horiz-adv-x="595" 
d="M501 362l54 -48c-25 -52 -62 -88 -129 -88c-76 0 -146 69 -216 69c-51 0 -88 -29 -115 -64l-55 47c36 68 98 116 177 116c83 0 166 -68 215 -68c32 0 53 17 69 36z" />
    <glyph glyph-name="DEL" horiz-adv-x="0" 
 />
    <glyph glyph-name="Adieresis" unicode="&#xc4;" horiz-adv-x="735" 
d="M304 679l121 10l255 -621l60 -22v-46h-323v46l66 21l-53 134h-210l-51 -134l65 -21v-46h-239v46l63 22zM403 270l-76 196h-7l-74 -196h157zM286 757c-39 0 -66 28 -66 64c0 35 27 65 66 65c38 0 64 -30 64 -65c0 -36 -26 -64 -64 -64zM450 757c-38 0 -65 28 -65 64
c0 35 27 65 65 65c39 0 65 -30 65 -65c0 -36 -26 -64 -65 -64z" />
    <glyph glyph-name="Aring" unicode="&#xc5;" horiz-adv-x="735" 
d="M304 679l121 10l255 -621l60 -22v-46h-323v46l66 21l-53 134h-210l-51 -134l65 -21v-46h-239v46l63 22zM403 270l-76 196h-7l-74 -196h157zM369 897c73 0 123 -28 123 -81c0 -54 -53 -84 -125 -84c-74 0 -124 29 -124 81c0 54 53 84 126 84zM371 772c27 0 39 15 39 42
c0 29 -17 44 -45 44s-40 -15 -40 -44c0 -27 17 -42 46 -42z" />
    <glyph glyph-name="Ccedilla" unicode="&#xc7;" horiz-adv-x="646" 
d="M621 179c-22 -75 -96 -189 -260 -189h-13l-16 -26c56 -3 95 -17 95 -61c0 -49 -47 -80 -126 -80c-43 0 -80 13 -104 31l21 37c16 -9 41 -21 70 -21c22 0 36 9 36 23c0 22 -32 27 -83 35v4l40 65c-154 28 -251 143 -251 333c0 230 154 359 361 359c87 0 142 -22 193 -22
v-79c0 -40 15 -104 15 -104l-56 -16s-48 42 -74 124c-19 10 -42 15 -78 15c-106 0 -172 -88 -172 -264c0 -152 80 -228 176 -228c104 0 150 41 188 87z" />
    <glyph glyph-name="Eacute" unicode="&#xc9;" horiz-adv-x="660" 
d="M424 914h19l73 -85l-184 -94l-35 40zM110 610l-70 22v47h556v-56c0 -45 11 -125 11 -125l-50 -10s-36 42 -59 115h-208v-222l169 2l20 47h53v-168h-49l-23 47l-170 2v-235h231c23 73 59 125 59 125l50 -10s-11 -90 -11 -135v-56h-579v47l70 22v541z" />
    <glyph glyph-name="Ntilde" unicode="&#xd1;" horiz-adv-x="766" 
d="M558 612l-67 21v46h245v-46l-68 -21v-612h-87l-363 423v-356c24 -7 44 -16 67 -21v-46h-245v46l68 21v545l-68 21v46h202l316 -365v298zM568 883c-12 -46 -43 -127 -103 -127c-62 0 -100 42 -157 45c-15 -8 -31 -24 -54 -58l-48 18c16 48 61 129 123 129
c64 0 95 -39 148 -41c18 10 36 36 44 53z" />
    <glyph glyph-name="Odieresis" unicode="&#xd6;" horiz-adv-x="753" 
d="M295 757c-39 0 -66 28 -66 64c0 35 27 65 66 65c38 0 64 -30 64 -65c0 -36 -26 -64 -64 -64zM459 757c-38 0 -65 28 -65 64c0 35 27 65 65 65c39 0 65 -30 65 -65c0 -36 -26 -64 -65 -64zM379 689c196 0 334 -125 334 -346c0 -220 -145 -353 -338 -353
c-196 0 -335 124 -335 343c0 223 145 356 339 356zM370 608c-103 0 -140 -100 -140 -270c0 -168 54 -267 154 -267c102 0 139 99 139 267c0 170 -54 270 -153 270z" />
    <glyph glyph-name="Udieresis" unicode="&#xdc;" horiz-adv-x="780" 
d="M308 757c-39 0 -66 28 -66 64c0 35 27 65 66 65c38 0 64 -30 64 -65c0 -36 -26 -64 -64 -64zM472 757c-38 0 -65 28 -65 64c0 35 27 65 65 65c39 0 65 -30 65 -65c0 -36 -26 -64 -65 -64zM575 187v423l-70 22v47h250v-47l-70 -22v-478c-44 -83 -129 -142 -280 -142
s-261 56 -305 149v471l-70 22v47h320v-47l-70 -22v-423c0 -79 64 -116 147 -116c81 0 148 35 148 116z" />
    <glyph glyph-name="aacute" unicode="&#xe1;" horiz-adv-x="573" 
d="M277 525c137 0 212 -61 212 -191c0 -73 -3 -121 -3 -227c0 -25 9 -34 22 -34c16 0 35 12 50 24l27 -37c-35 -48 -85 -70 -148 -70c-57 0 -92 23 -107 62c-32 -32 -78 -62 -141 -62c-77 0 -149 35 -149 136v60c68 76 202 110 283 127v24c0 72 -20 113 -84 113
c-22 0 -41 -7 -55 -14c-12 -37 -13 -96 -13 -96h-88s-28 41 -35 102c35 36 132 83 229 83zM356 750h19l73 -85l-184 -94l-35 40zM256 91c22 0 47 8 65 21c0 46 1 89 1 134c-41 -11 -83 -24 -120 -50v-52c0 -38 25 -53 54 -53z" />
    <glyph glyph-name="agrave" unicode="&#xe0;" horiz-adv-x="573" 
d="M277 525c137 0 212 -61 212 -191c0 -73 -3 -121 -3 -227c0 -25 9 -34 22 -34c16 0 35 12 50 24l27 -37c-35 -48 -85 -70 -148 -70c-57 0 -92 23 -107 62c-32 -32 -78 -62 -141 -62c-77 0 -149 35 -149 136v60c68 76 202 110 283 127v24c0 72 -20 113 -84 113
c-22 0 -41 -7 -55 -14c-12 -37 -13 -96 -13 -96h-88s-28 41 -35 102c35 36 132 83 229 83zM186 750h19l127 -139l-35 -40l-184 94zM256 91c22 0 47 8 65 21c0 46 1 89 1 134c-41 -11 -83 -24 -120 -50v-52c0 -38 25 -53 54 -53z" />
    <glyph glyph-name="acircumflex" unicode="&#xe2;" horiz-adv-x="573" 
d="M277 525c137 0 212 -61 212 -191c0 -73 -3 -121 -3 -227c0 -25 9 -34 22 -34c16 0 35 12 50 24l27 -37c-35 -48 -85 -70 -148 -70c-57 0 -92 23 -107 62c-32 -32 -78 -62 -141 -62c-77 0 -149 35 -149 136v60c68 76 202 110 283 127v24c0 72 -20 113 -84 113
c-22 0 -41 -7 -55 -14c-12 -37 -13 -96 -13 -96h-88s-28 41 -35 102c35 36 132 83 229 83zM254 741h46l137 -140l-35 -40l-125 74l-125 -74l-35 40zM256 91c22 0 47 8 65 21c0 46 1 89 1 134c-41 -11 -83 -24 -120 -50v-52c0 -38 25 -53 54 -53z" />
    <glyph glyph-name="adieresis" unicode="&#xe4;" horiz-adv-x="573" 
d="M277 525c137 0 212 -61 212 -191c0 -73 -3 -121 -3 -227c0 -25 9 -34 22 -34c16 0 35 12 50 24l27 -37c-35 -48 -85 -70 -148 -70c-57 0 -92 23 -107 62c-32 -32 -78 -62 -141 -62c-77 0 -149 35 -149 136v60c68 76 202 110 283 127v24c0 72 -20 113 -84 113
c-22 0 -41 -7 -55 -14c-12 -37 -13 -96 -13 -96h-88s-28 41 -35 102c35 36 132 83 229 83zM256 91c22 0 47 8 65 21c0 46 1 89 1 134c-41 -11 -83 -24 -120 -50v-52c0 -38 25 -53 54 -53zM203 593c-39 0 -66 28 -66 64c0 35 27 65 66 65c38 0 64 -30 64 -65
c0 -36 -26 -64 -64 -64zM367 593c-38 0 -65 28 -65 64c0 35 27 65 65 65c39 0 65 -30 65 -65c0 -36 -26 -64 -65 -64z" />
    <glyph glyph-name="atilde" unicode="&#xe3;" horiz-adv-x="573" 
d="M277 525c137 0 212 -61 212 -191c0 -73 -3 -121 -3 -227c0 -25 9 -34 22 -34c16 0 35 12 50 24l27 -37c-35 -48 -85 -70 -148 -70c-57 0 -92 23 -107 62c-32 -32 -78 -62 -141 -62c-77 0 -149 35 -149 136v60c68 76 202 110 283 127v24c0 72 -20 113 -84 113
c-22 0 -41 -7 -55 -14c-12 -37 -13 -96 -13 -96h-88s-28 41 -35 102c35 36 132 83 229 83zM466 719c-12 -46 -43 -127 -103 -127c-62 0 -100 42 -157 45c-15 -8 -31 -24 -54 -58l-48 18c16 48 61 129 123 129c64 0 95 -39 148 -41c18 10 36 36 44 53zM256 91
c22 0 47 8 65 21c0 46 1 89 1 134c-41 -11 -83 -24 -120 -50v-52c0 -38 25 -53 54 -53z" />
    <glyph glyph-name="aring" unicode="&#xe5;" horiz-adv-x="573" 
d="M277 525c137 0 212 -61 212 -191c0 -73 -3 -121 -3 -227c0 -25 9 -34 22 -34c16 0 35 12 50 24l27 -37c-35 -48 -85 -70 -148 -70c-57 0 -92 23 -107 62c-32 -32 -78 -62 -141 -62c-77 0 -149 35 -149 136v60c68 76 202 110 283 127v24c0 72 -20 113 -84 113
c-22 0 -41 -7 -55 -14c-12 -37 -13 -96 -13 -96h-88s-28 41 -35 102c35 36 132 83 229 83zM268 733c73 0 123 -28 123 -81c0 -54 -53 -84 -125 -84c-74 0 -124 29 -124 81c0 54 53 84 126 84zM256 91c22 0 47 8 65 21c0 46 1 89 1 134c-41 -11 -83 -24 -120 -50v-52
c0 -38 25 -53 54 -53zM270 608c27 0 39 15 39 42c0 29 -17 44 -45 44s-40 -15 -40 -44c0 -27 17 -42 46 -42z" />
    <glyph glyph-name="ccedilla" unicode="&#xe7;" horiz-adv-x="494" 
d="M440 346h-77s1 45 -12 90c-13 7 -29 11 -48 11c-65 0 -101 -52 -101 -168c0 -137 57 -181 130 -181c42 0 84 18 126 50l29 -33c-33 -64 -97 -125 -197 -125h-17l-16 -26c56 -3 95 -17 95 -61c0 -49 -47 -80 -126 -80c-43 0 -80 13 -104 31l21 37c16 -9 41 -21 70 -21
c22 0 36 9 36 23c0 22 -32 27 -83 35v4l42 68c-108 26 -175 111 -175 254c0 170 122 271 264 271c69 0 136 -20 173 -52c-3 -74 -30 -127 -30 -127z" />
    <glyph glyph-name="eacute" unicode="&#xe9;" horiz-adv-x="526" 
d="M458 142l29 -33c-33 -61 -99 -119 -201 -119c-152 0 -253 88 -253 264c0 170 116 271 246 271c141 0 217 -98 217 -228v-57l-295 1c10 -108 62 -144 127 -144c44 0 86 16 130 45zM358 750h19l73 -85l-184 -94l-35 40zM275 452c-63 0 -74 -85 -75 -146l138 7v3
c0 84 -21 136 -63 136z" />
    <glyph glyph-name="egrave" unicode="&#xe8;" horiz-adv-x="526" 
d="M458 142l29 -33c-33 -61 -99 -119 -201 -119c-152 0 -253 88 -253 264c0 170 116 271 246 271c141 0 217 -98 217 -228v-57l-295 1c10 -108 62 -144 127 -144c44 0 86 16 130 45zM187 750h19l127 -139l-35 -40l-184 94zM275 452c-63 0 -74 -85 -75 -146l138 7v3
c0 84 -21 136 -63 136z" />
    <glyph glyph-name="ecircumflex" unicode="&#xea;" horiz-adv-x="526" 
d="M458 142l29 -33c-33 -61 -99 -119 -201 -119c-152 0 -253 88 -253 264c0 170 116 271 246 271c141 0 217 -98 217 -228v-57l-295 1c10 -108 62 -144 127 -144c44 0 86 16 130 45zM237 741h46l137 -140l-35 -40l-125 74l-125 -74l-35 40zM275 452c-63 0 -74 -85 -75 -146
l138 7v3c0 84 -21 136 -63 136z" />
    <glyph glyph-name="edieresis" unicode="&#xeb;" horiz-adv-x="526" 
d="M458 142l29 -33c-33 -61 -99 -119 -201 -119c-152 0 -253 88 -253 264c0 170 116 271 246 271c141 0 217 -98 217 -228v-57l-295 1c10 -108 62 -144 127 -144c44 0 86 16 130 45zM275 452c-63 0 -74 -85 -75 -146l138 7v3c0 84 -21 136 -63 136zM181 593
c-39 0 -66 28 -66 64c0 35 27 65 66 65c38 0 64 -30 64 -65c0 -36 -26 -64 -64 -64zM345 593c-38 0 -65 28 -65 64c0 35 27 65 65 65c39 0 65 -30 65 -65c0 -36 -26 -64 -65 -64z" />
    <glyph glyph-name="iacute" unicode="&#xed;" horiz-adv-x="352" 
d="M241 750h19l73 -85l-184 -94l-35 40zM265 525v-456l62 -22v-47h-292v47l62 22v352l-63 11v50l164 43h67z" />
    <glyph glyph-name="igrave" unicode="&#xec;" horiz-adv-x="352" 
d="M265 525v-456l62 -22v-47h-292v47l62 22v352l-63 11v50l164 43h67zM113 750h19l127 -139l-35 -40l-184 94z" />
    <glyph glyph-name="icircumflex" unicode="&#xee;" horiz-adv-x="352" 
d="M146 741h46l137 -140l-35 -40l-125 74l-125 -74l-35 40zM265 525v-456l62 -22v-47h-292v47l62 22v352l-63 11v50l164 43h67z" />
    <glyph glyph-name="idieresis" unicode="&#xef;" horiz-adv-x="352" 
d="M90 593c-39 0 -66 28 -66 64c0 35 27 65 66 65c38 0 64 -30 64 -65c0 -36 -26 -64 -64 -64zM254 593c-38 0 -65 28 -65 64c0 35 27 65 65 65c39 0 65 -30 65 -65c0 -36 -26 -64 -65 -64zM265 525v-456l62 -22v-47h-292v47l62 22v352l-63 11v50l164 43h67z" />
    <glyph glyph-name="ntilde" unicode="&#xf1;" horiz-adv-x="656" 
d="M198 525h63v-65h4c38 36 93 65 153 65c84 0 158 -43 158 -170v-286l62 -22v-47h-278v47l48 22v273c0 32 -10 72 -72 72c-23 0 -53 -8 -71 -22v-323l47 -22v-47h-277v47l62 22v352l-63 11v50zM509 719c-12 -46 -43 -127 -103 -127c-62 0 -100 42 -157 45
c-15 -8 -31 -24 -54 -58l-48 18c16 48 61 129 123 129c64 0 95 -39 148 -41c18 10 36 36 44 53z" />
    <glyph glyph-name="oacute" unicode="&#xf3;" horiz-adv-x="595" 
d="M379 750h19l73 -85l-184 -94l-35 40zM301 525c160 0 261 -94 261 -265c0 -169 -109 -270 -267 -270c-161 0 -262 95 -262 264c0 171 109 271 268 271zM301 66c64 0 85 61 85 191c0 132 -27 193 -91 193c-65 0 -86 -61 -86 -193c0 -130 27 -191 92 -191z" />
    <glyph glyph-name="ograve" unicode="&#xf2;" horiz-adv-x="595" 
d="M301 525c160 0 261 -94 261 -265c0 -169 -109 -270 -267 -270c-161 0 -262 95 -262 264c0 171 109 271 268 271zM301 66c64 0 85 61 85 191c0 132 -27 193 -91 193c-65 0 -86 -61 -86 -193c0 -130 27 -191 92 -191zM212 750h19l127 -139l-35 -40l-184 94z" />
    <glyph glyph-name="ocircumflex" unicode="&#xf4;" horiz-adv-x="595" 
d="M274 741h46l137 -140l-35 -40l-125 74l-125 -74l-35 40zM301 525c160 0 261 -94 261 -265c0 -169 -109 -270 -267 -270c-161 0 -262 95 -262 264c0 171 109 271 268 271zM301 66c64 0 85 61 85 191c0 132 -27 193 -91 193c-65 0 -86 -61 -86 -193c0 -130 27 -191 92 -191
z" />
    <glyph glyph-name="odieresis" unicode="&#xf6;" horiz-adv-x="595" 
d="M214 593c-39 0 -66 28 -66 64c0 35 27 65 66 65c38 0 64 -30 64 -65c0 -36 -26 -64 -64 -64zM378 593c-38 0 -65 28 -65 64c0 35 27 65 65 65c39 0 65 -30 65 -65c0 -36 -26 -64 -65 -64zM301 525c160 0 261 -94 261 -265c0 -169 -109 -270 -267 -270
c-161 0 -262 95 -262 264c0 171 109 271 268 271zM301 66c64 0 85 61 85 191c0 132 -27 193 -91 193c-65 0 -86 -61 -86 -193c0 -130 27 -191 92 -191z" />
    <glyph glyph-name="otilde" unicode="&#xf5;" horiz-adv-x="595" 
d="M301 525c160 0 261 -94 261 -265c0 -169 -109 -270 -267 -270c-161 0 -262 95 -262 264c0 171 109 271 268 271zM301 66c64 0 85 61 85 191c0 132 -27 193 -91 193c-65 0 -86 -61 -86 -193c0 -130 27 -191 92 -191zM478 719c-12 -46 -43 -127 -103 -127
c-62 0 -100 42 -157 45c-15 -8 -31 -24 -54 -58l-48 18c16 48 61 129 123 129c64 0 95 -39 148 -41c18 10 36 36 44 53z" />
    <glyph glyph-name="uacute" unicode="&#xfa;" horiz-adv-x="646" 
d="M382 750h19l73 -85l-184 -94l-35 40zM249 525v-384c4 -9 21 -40 68 -40c23 0 53 8 71 22v298l-63 11v50l164 43h67v-456l62 -22v-47h-215l-10 55h-5c-37 -36 -81 -65 -152 -65c-117 0 -146 74 -155 98v333l-63 11v50l164 43h67z" />
    <glyph glyph-name="ugrave" unicode="&#xf9;" horiz-adv-x="646" 
d="M249 525v-384c4 -9 21 -40 68 -40c23 0 53 8 71 22v298l-63 11v50l164 43h67v-456l62 -22v-47h-215l-10 55h-5c-37 -36 -81 -65 -152 -65c-117 0 -146 74 -155 98v333l-63 11v50l164 43h67zM221 750h19l127 -139l-35 -40l-184 94z" />
    <glyph glyph-name="ucircumflex" unicode="&#xfb;" horiz-adv-x="646" 
d="M293 741h46l137 -140l-35 -40l-125 74l-125 -74l-35 40zM249 525v-384c4 -9 21 -40 68 -40c23 0 53 8 71 22v298l-63 11v50l164 43h67v-456l62 -22v-47h-215l-10 55h-5c-37 -36 -81 -65 -152 -65c-117 0 -146 74 -155 98v333l-63 11v50l164 43h67z" />
    <glyph glyph-name="udieresis" unicode="&#xfc;" horiz-adv-x="646" 
d="M237 593c-39 0 -66 28 -66 64c0 35 27 65 66 65c38 0 64 -30 64 -65c0 -36 -26 -64 -64 -64zM401 593c-38 0 -65 28 -65 64c0 35 27 65 65 65c39 0 65 -30 65 -65c0 -36 -26 -64 -65 -64zM249 525v-384c4 -9 21 -40 68 -40c23 0 53 8 71 22v298l-63 11v50l164 43h67v-456
l62 -22v-47h-215l-10 55h-5c-37 -36 -81 -65 -152 -65c-117 0 -146 74 -155 98v333l-63 11v50l164 43h67z" />
    <glyph glyph-name="dagger" unicode="&#x2020;" horiz-adv-x="498" 
d="M319 679l-35 -189l174 34v-120l-171 33l32 -108l-40 -329h-60l-40 329l32 107l-171 -32v120l174 -33l-35 188h140z" />
    <glyph glyph-name="degree" unicode="&#xb0;" horiz-adv-x="347" 
d="M40 515c0 73 60 134 133 134s134 -61 134 -134s-61 -133 -134 -133s-133 60 -133 133zM120 515c0 -31 25 -57 53 -57s52 26 52 57s-24 57 -52 57s-53 -26 -53 -57z" />
    <glyph glyph-name="cent" unicode="&#xa2;" horiz-adv-x="584" 
d="M359 -10h-77v61c-138 16 -227 103 -227 261c0 148 100 244 227 266v71h77v-67c59 -3 120 -23 153 -51c-3 -74 -30 -127 -30 -127h-77s1 45 -12 90c-10 5 -21 9 -34 10v-348h15c42 0 84 18 126 50l29 -33c-30 -58 -86 -114 -170 -124v-59zM224 337c0 -81 22 -129 58 -155
v307c-38 -24 -58 -73 -58 -152z" />
    <glyph glyph-name="sterling" unicode="&#xa3;" horiz-adv-x="652" 
d="M50 0v47l69 21c2 29 2 68 2 89v115h-71v77h71v48c0 181 131 252 267 252c68 0 127 -14 195 -20v-56c0 -40 14 -104 14 -104l-56 -16s-34 35 -61 98c-23 12 -48 19 -79 19c-85 0 -106 -63 -106 -151v-70h109v-77h-109v-48c0 -63 -20 -113 -50 -148h248
c23 73 59 135 59 135l50 -10s-11 -90 -11 -135v-66h-541z" />
    <glyph glyph-name="section" unicode="&#xa7;" horiz-adv-x="628" 
d="M568 259c0 -47 -18 -94 -52 -132c27 -31 42 -71 42 -118c0 -134 -119 -186 -244 -186c-78 0 -146 21 -223 30v56c0 36 -14 94 -14 94l56 16s33 -31 59 -87c32 -17 67 -29 123 -29c63 0 93 30 93 70c0 24 -11 42 -51 52l-112 27c-130 31 -185 97 -185 200
c0 47 18 94 52 132c-28 30 -42 71 -42 118c0 134 119 186 244 186c78 0 146 -21 223 -30v-56c0 -36 14 -94 14 -94l-56 -16s-33 31 -60 87c-32 17 -67 29 -122 29c-63 0 -93 -30 -93 -70c0 -24 11 -42 51 -52l112 -27c130 -31 185 -97 185 -200zM331 298l-106 26
c-2 -10 -3 -22 -3 -33c0 -33 21 -65 75 -78l105 -26c3 10 4 21 4 33c0 33 -21 65 -75 78z" />
    <glyph glyph-name="bullet" unicode="&#x2022;" horiz-adv-x="396" 
d="M60 283c0 73 54 132 137 132c87 0 139 -59 139 -132c0 -71 -52 -129 -139 -129c-83 0 -137 58 -137 129z" />
    <glyph glyph-name="paragraph" unicode="&#xb6;" horiz-adv-x="617" 
d="M326 679v-550c-201 -2 -296 125 -296 277c0 156 119 273 296 273zM497 610v-533c0 -202 -139 -254 -277 -254c-36 0 -70 4 -99 9c-9 89 13 155 13 155h90s4 -57 15 -83c43 5 148 13 148 157v618h190v-47z" />
    <glyph glyph-name="germandbls" unicode="&#xdf;" horiz-adv-x="703" 
d="M382 734c118 0 213 -51 213 -140c0 -111 -103 -121 -103 -174c0 -27 17 -40 33 -51l75 -52c65 -45 93 -88 93 -157c0 -104 -83 -170 -191 -170c-48 0 -94 9 -138 25v49c0 26 -12 72 -12 72l63 14s21 -39 36 -84c17 -11 26 -17 43 -17c32 0 51 20 51 55
c0 39 -24 62 -51 84l-68 55c-29 24 -79 51 -79 120c0 86 102 118 102 202c0 57 -29 101 -80 101c-78 0 -95 -60 -95 -126v-471l54 -22v-47h-294v47l72 22v373h-72v55l72 14v3c0 162 145 220 276 220z" />
    <glyph glyph-name="registered" unicode="&#xae;" horiz-adv-x="656" 
d="M40 401c0 159 128 289 287 289s289 -130 289 -289s-130 -287 -289 -287s-287 128 -287 287zM327 646c-131 0 -237 -110 -237 -245s106 -245 237 -245s237 110 237 245s-106 245 -237 245zM490 286v-28h-105c-14 6 -28 22 -37 49l-23 66h-17v-78l22 -9v-28h-153v28l30 9
v221l-30 10v27h167c77 0 125 -25 125 -83c0 -42 -18 -65 -47 -78v-4l24 -54c19 -43 44 -48 44 -48zM314 513h-6v-101h24c14 5 34 21 34 52c0 35 -20 49 -52 49z" />
    <glyph glyph-name="copyright" unicode="&#xa9;" horiz-adv-x="779" 
d="M40 339c0 193 156 350 349 350s350 -157 350 -350s-157 -349 -350 -349s-349 156 -349 349zM389 646c-165 0 -299 -138 -299 -307s134 -306 299 -306s300 137 300 306s-135 307 -300 307zM566 234c-20 -65 -80 -128 -177 -128c-132 0 -224 84 -224 229
c0 149 108 233 249 233c56 0 92 -15 125 -15v-33c0 -50 9 -90 9 -90l-46 -16s-39 32 -53 96c-8 2 -17 3 -29 3c-59 0 -101 -55 -101 -161c0 -89 38 -148 117 -148c54 0 81 27 99 48z" />
    <glyph glyph-name="trademark" unicode="&#x2122;" horiz-adv-x="894" 
d="M431 641l-33 10v28h151l80 -191h2l84 191h139v-28l-32 -10v-263l32 -10v-28h-173v28l33 10v181h-2s-4 -24 -12 -42l-69 -161h-63l-68 153c-12 27 -16 50 -16 50h-2v-181l32 -10v-28h-116v28l33 10v263zM106 368l43 11v257h-45c-20 -46 -40 -75 -40 -75l-24 5s6 33 6 77
v36h317v-36c0 -44 5 -77 5 -77l-24 -5s-20 29 -40 75h-46v-257l44 -11v-28h-196v28z" />
    <glyph glyph-name="acute" unicode="&#xb4;" horiz-adv-x="295" 
d="M170 750h19l73 -85l-184 -94l-35 40z" />
    <glyph glyph-name="dieresis" unicode="&#xa8;" horiz-adv-x="341" 
d="M89 593c-39 0 -66 28 -66 64c0 35 27 65 66 65c38 0 64 -30 64 -65c0 -36 -26 -64 -64 -64zM253 593c-38 0 -65 28 -65 64c0 35 27 65 65 65c39 0 65 -30 65 -65c0 -36 -26 -64 -65 -64z" />
    <glyph glyph-name="notequal" unicode="&#x2260;" 
d="M40 348v95h246l23 50h57l-23 -50h125v-95h-167l-32 -70h199v-95h-241l-37 -83h-58l37 83h-129v95h172l31 70h-203z" />
    <glyph glyph-name="AE" unicode="&#xc6;" horiz-adv-x="993" 
d="M37 68l331 611h561v-56c0 -45 11 -125 11 -125l-50 -10s-36 42 -59 115h-208v-222l169 2l20 47h53v-168h-49l-23 47l-170 2v-235h231c23 73 59 125 59 125l50 -10s-11 -90 -11 -135v-56h-579v47l70 22v132h-215l-69 -134l65 -21v-46h-239v46zM443 610h-4l-176 -340h180
v340z" />
    <glyph glyph-name="Oslash" unicode="&#xd8;" horiz-adv-x="753" 
d="M379 689c69 0 131 -16 182 -46l34 46h81l-63 -85c63 -59 100 -147 100 -261c0 -220 -145 -353 -338 -353c-70 0 -132 16 -183 45l-34 -45h-82l63 85c-62 58 -99 145 -99 258c0 223 145 356 339 356zM523 338c0 48 -5 90 -13 127l-240 -324c26 -46 64 -70 114 -70
c102 0 139 99 139 267zM370 608c-103 0 -140 -100 -140 -270c0 -47 4 -89 12 -124l241 324c-26 45 -64 70 -113 70z" />
    <glyph glyph-name="infinity" unicode="&#x221e;" horiz-adv-x="851" 
d="M425 357c48 49 109 103 195 103c119 0 191 -81 191 -179s-62 -179 -191 -179c-79 0 -148 56 -194 102c-49 -49 -109 -102 -195 -102c-129 0 -191 81 -191 179s72 179 191 179c84 0 146 -54 194 -103zM231 199c48 0 95 43 130 82c-35 38 -81 82 -130 82
c-52 0 -83 -31 -83 -82s31 -82 83 -82zM620 199c52 0 83 31 83 82s-31 82 -83 82c-49 0 -95 -44 -130 -82c35 -39 82 -82 130 -82z" />
    <glyph glyph-name="plusminus" unicode="&#xb1;" 
d="M40 279v94h167v142h94v-142h167v-94h-167v-142h-94v142h-167zM40 0v94h428v-94h-428z" />
    <glyph glyph-name="lessequal" unicode="&#x2264;" 
d="M468 240v-96l-428 149v67l428 148v-97l-274 -83zM40 10v95h428v-95h-428z" />
    <glyph glyph-name="greaterequal" unicode="&#x2265;" 
d="M40 144v96l274 88l-274 83v97l428 -148v-67zM468 105v-95h-428v95h428z" />
    <glyph glyph-name="yen" unicode="&#xa5;" horiz-adv-x="725" 
d="M132 296v77h80l-121 198l-61 22v46h328v-46l-66 -21l113 -198h2l113 198l-65 21v46h240v-46l-62 -22l-117 -198h86v-77h-131l-15 -26v-15h146v-77h-146v-109l70 -22v-47h-320v47l70 22v109h-144v77h144v14l-17 27h-127z" />
    <glyph glyph-name="mu" unicode="&#xb5;" horiz-adv-x="646" 
d="M249 525v-384c4 -9 21 -40 68 -40c23 0 53 8 71 22v298l-63 11v50l164 43h67v-456l62 -22v-47h-215l-10 55h-5c-34 -33 -73 -59 -133 -64l13 -158h-187v588l-63 11v50l164 43h67z" />
    <glyph glyph-name="mu" unicode="&#x3bc;" horiz-adv-x="646" 
d="M249 525v-384c4 -9 21 -40 68 -40c23 0 53 8 71 22v298l-63 11v50l164 43h67v-456l62 -22v-47h-215l-10 55h-5c-34 -33 -73 -59 -133 -64l13 -158h-187v588l-63 11v50l164 43h67z" />
    <glyph glyph-name="partialdiff" unicode="&#x2202;" horiz-adv-x="583" 
d="M503 526v-536l-443 267z" />
    <glyph glyph-name="summation" unicode="&#x2211;" horiz-adv-x="583" 
d="M80 -10v536l443 -269z" />
    <glyph glyph-name="product" unicode="&#x220f;" horiz-adv-x="596" 
d="M566 43h-536l269 443z" />
    <glyph glyph-name="pi" unicode="&#x3c0;" horiz-adv-x="596" 
d="M30 465h536l-267 -443z" />
    <glyph glyph-name="integral" unicode="&#x222b;" horiz-adv-x="501" 
d="M290 336l123 -245h-84l-78 168l-81 -168h-85l124 245l-124 245h85l81 -168l78 168h84zM50 612v67h401v-67h-401zM50 0v67h401v-67h-401z" />
    <glyph glyph-name="ordfeminine" unicode="&#xaa;" horiz-adv-x="378" 
d="M168 649c87 0 122 -36 122 -99c0 -30 -2 -48 -2 -90c0 -11 5 -14 10 -14c10 0 16 6 20 14l20 -12c-12 -43 -40 -64 -88 -64c-30 0 -53 12 -63 33c-16 -17 -41 -33 -77 -33s-70 17 -70 66v37c33 32 103 51 142 59v21c0 33 -11 40 -29 40c-11 0 -18 -2 -23 -4
c-14 -14 -15 -49 -15 -49h-48s-15 13 -21 50c18 19 68 45 122 45zM160 440c6 0 14 3 21 8c0 18 0 40 1 62c-12 -2 -25 -6 -33 -8v-39c0 -22 5 -23 11 -23z" />
    <glyph glyph-name="ordmasculine" unicode="&#xba;" horiz-adv-x="374" 
d="M188 649c89 0 146 -47 146 -132c0 -83 -60 -133 -148 -133c-90 0 -146 47 -146 131s61 134 148 134zM188 425c24 0 33 30 33 91c0 63 -10 92 -35 92c-26 0 -32 -29 -32 -92c0 -61 8 -91 34 -91z" />
    <glyph glyph-name="Omega" unicode="&#x3a9;" horiz-adv-x="501" 
d="M290 336l123 -245h-84l-78 168l-81 -168h-85l124 245l-124 245h85l81 -168l78 168h84zM50 612v67h401v-67h-401zM50 0v67h401v-67h-401z" />
    <glyph glyph-name="Omega" unicode="&#x2126;" horiz-adv-x="501" 
d="M290 336l123 -245h-84l-78 168l-81 -168h-85l124 245l-124 245h85l81 -168l78 168h84zM50 612v67h401v-67h-401zM50 0v67h401v-67h-401z" />
    <glyph glyph-name="ae" unicode="&#xe6;" horiz-adv-x="814" 
d="M746 142l29 -33c-33 -61 -99 -119 -201 -119c-84 0 -152 27 -196 80c-38 -44 -100 -80 -189 -80c-77 0 -149 35 -149 136v60c68 75 202 110 282 127l1 24c3 72 -20 113 -84 113c-22 0 -41 -7 -55 -14c-12 -37 -13 -96 -13 -96h-88s-28 41 -35 102c35 36 130 83 227 83
c67 0 117 -17 150 -52c40 33 89 52 142 52c141 0 217 -98 217 -228v-57l-295 1c10 -108 62 -144 127 -144c44 0 86 16 130 45zM256 91c32 0 66 10 92 26c-17 35 -26 78 -27 129c-41 -11 -82 -24 -119 -50v-52c0 -38 25 -53 54 -53zM563 452c-63 0 -74 -85 -75 -146l138 7v3
c0 84 -21 136 -63 136z" />
    <glyph glyph-name="oslash" unicode="&#xf8;" horiz-adv-x="595" 
d="M301 525c52 0 99 -10 137 -30l23 30h77l-50 -66c47 -45 74 -112 74 -199c0 -169 -109 -270 -267 -270c-53 0 -99 10 -137 29l-22 -29h-78l49 65c-48 45 -74 112 -74 199c0 171 109 271 268 271zM209 257c0 -23 0 -44 2 -63l155 205c-15 34 -38 51 -71 51
c-65 0 -86 -61 -86 -193zM301 66c64 0 85 61 85 191c0 22 -1 43 -3 62l-153 -205c15 -32 38 -48 71 -48z" />
    <glyph glyph-name="questiondown" unicode="&#xbf;" horiz-adv-x="519" 
d="M477 -95c-30 -31 -98 -79 -219 -79c-131 0 -228 64 -228 177c0 124 103 188 205 214l31 73h65l63 -140c-61 -16 -191 -37 -191 -154c0 -73 51 -91 100 -91c21 0 40 5 57 13c26 55 33 106 33 106h65s26 -59 19 -119zM387 439c0 -49 -36 -88 -91 -88c-58 0 -93 39 -93 88
c0 47 35 86 93 86c55 0 91 -39 91 -86z" />
    <glyph glyph-name="exclamdown" unicode="&#xa1;" horiz-adv-x="322" 
d="M143 290h35l79 -394c-9 -48 -54 -70 -95 -70c-46 0 -89 23 -97 70zM72 439c0 47 36 86 91 86c58 0 93 -39 93 -86c0 -49 -35 -88 -93 -88c-55 0 -91 39 -91 88z" />
    <glyph glyph-name="logicalnot" unicode="&#xac;" 
d="M40 232v94h428v-229h-95v135h-333z" />
    <glyph glyph-name="radical" unicode="&#x221a;" horiz-adv-x="1042" 
d="M280 385c133 0 220 -90 220 -197s-87 -198 -220 -198c-131 0 -220 91 -220 212c0 237 173 323 344 323c20 0 40 -1 60 -3v-1c-58 -7 -177 -53 -200 -137c5 1 10 1 16 1zM763 385c133 0 219 -90 219 -197s-86 -198 -219 -198s-220 91 -220 212c0 237 172 323 343 323
c20 0 41 -1 61 -3v-1c-58 -7 -177 -53 -200 -137c5 1 10 1 16 1z" />
    <glyph glyph-name="florin" unicode="&#x192;" horiz-adv-x="594" 
d="M448 508c0 0 19 28 27 67c-9 3 -21 6 -38 6c-54 0 -70 -50 -80 -106l-17 -93h105v-77h-118l-50 -282c-29 -163 -133 -200 -230 -200c-46 0 -99 14 -117 25c2 78 46 127 46 127l70 -11s-20 -29 -28 -69c6 -3 13 -4 24 -4c43 0 55 50 65 106l54 308h-85v77h99l12 67
c29 163 142 200 245 200c52 0 113 -14 132 -25c-2 -78 -46 -127 -46 -127z" />
    <glyph glyph-name="approxequal" unicode="&#x2248;" horiz-adv-x="595" 
d="M501 446l54 -48c-25 -52 -62 -88 -129 -88c-76 0 -146 69 -216 69c-51 0 -88 -29 -115 -64l-55 47c36 68 98 116 177 116c83 0 166 -68 215 -68c32 0 53 17 69 36zM501 265l54 -48c-25 -52 -62 -88 -129 -88c-76 0 -146 69 -216 69c-51 0 -88 -29 -115 -64l-55 47
c36 68 98 116 177 116c83 0 166 -68 215 -68c32 0 53 17 69 36z" />
    <glyph glyph-name="Delta" unicode="&#x394;" horiz-adv-x="1042" 
d="M762 130c-133 0 -220 90 -220 197s87 198 220 198c131 0 220 -91 220 -212c0 -237 -173 -323 -344 -323c-20 0 -40 1 -60 3v1c58 7 177 53 200 137c-5 -1 -10 -1 -16 -1zM279 130c-133 0 -219 90 -219 197s86 198 219 198s220 -91 220 -212c0 -237 -172 -323 -343 -323
c-20 0 -41 1 -61 3v1c58 7 177 53 200 137c-5 -1 -10 -1 -16 -1z" />
    <glyph glyph-name="Delta" unicode="&#x2206;" horiz-adv-x="1042" 
d="M762 130c-133 0 -220 90 -220 197s87 198 220 198c131 0 220 -91 220 -212c0 -237 -173 -323 -344 -323c-20 0 -40 1 -60 3v1c58 7 177 53 200 137c-5 -1 -10 -1 -16 -1zM279 130c-133 0 -219 90 -219 197s86 198 219 198s220 -91 220 -212c0 -237 -172 -323 -343 -323
c-20 0 -41 1 -61 3v1c58 7 177 53 200 137c-5 -1 -10 -1 -16 -1z" />
    <glyph glyph-name="guillemotleft" unicode="&#xab;" horiz-adv-x="533" 
d="M40 232v45l166 186h77l-113 -207l113 -210h-77zM240 232v45l166 186h77l-113 -207l113 -210h-77z" />
    <glyph glyph-name="guillemotright" unicode="&#xbb;" horiz-adv-x="533" 
d="M293 277v-45l-166 -186h-77l113 210l-113 207h77zM493 277v-45l-166 -186h-77l113 210l-113 207h77z" />
    <glyph glyph-name="ellipsis" unicode="&#x2026;" horiz-adv-x="802" 
d="M45 76c0 49 36 88 91 88c58 0 93 -39 93 -88c0 -47 -35 -86 -93 -86c-55 0 -91 39 -91 86zM309 76c0 49 36 88 91 88c58 0 93 -39 93 -88c0 -47 -35 -86 -93 -86c-55 0 -91 39 -91 86zM573 76c0 49 36 88 91 88c58 0 93 -39 93 -88c0 -47 -35 -86 -93 -86
c-55 0 -91 39 -91 86z" />
    <glyph glyph-name="uni00A0" unicode="&#xa0;" horiz-adv-x="213" 
 />
    <glyph glyph-name="Agrave" unicode="&#xc0;" horiz-adv-x="735" 
d="M304 679l121 10l255 -621l60 -22v-46h-323v46l66 21l-53 134h-210l-51 -134l65 -21v-46h-239v46l63 22zM403 270l-76 196h-7l-74 -196h157zM281 914h19l127 -139l-35 -40l-184 94z" />
    <glyph glyph-name="Atilde" unicode="&#xc3;" horiz-adv-x="735" 
d="M304 679l121 10l255 -621l60 -22v-46h-323v46l66 21l-53 134h-210l-51 -134l65 -21v-46h-239v46l63 22zM403 270l-76 196h-7l-74 -196h157zM548 883c-12 -46 -43 -127 -103 -127c-62 0 -100 42 -157 45c-15 -8 -31 -24 -54 -58l-48 18c16 48 61 129 123 129
c64 0 95 -39 148 -41c18 10 36 36 44 53z" />
    <glyph glyph-name="Otilde" unicode="&#xd5;" horiz-adv-x="753" 
d="M379 689c196 0 334 -125 334 -346c0 -220 -145 -353 -338 -353c-196 0 -335 124 -335 343c0 223 145 356 339 356zM370 608c-103 0 -140 -100 -140 -270c0 -168 54 -267 154 -267c102 0 139 99 139 267c0 170 -54 270 -153 270zM548 883c-12 -46 -43 -127 -103 -127
c-62 0 -100 42 -157 45c-15 -8 -31 -24 -54 -58l-48 18c16 48 61 129 123 129c64 0 95 -39 148 -41c18 10 36 36 44 53z" />
    <glyph glyph-name="OE" unicode="&#x152;" horiz-adv-x="1009" 
d="M466 0c-28 -6 -59 -10 -91 -10c-206 0 -335 124 -335 343c0 223 135 356 339 356c34 0 66 -3 96 -10h470v-56c0 -45 11 -125 11 -125l-50 -10s-36 42 -59 115h-208v-222l169 2l20 47h53v-168h-49l-23 47l-170 2v-235h231c23 73 59 125 59 125l50 -10s-11 -90 -11 -135
v-56h-502zM384 71c30 0 55 9 75 26v473c-24 25 -54 38 -89 38c-103 0 -140 -100 -140 -270c0 -168 54 -267 154 -267z" />
    <glyph glyph-name="oe" unicode="&#x153;" horiz-adv-x="886" 
d="M818 142l29 -33c-33 -61 -99 -119 -201 -119c-74 0 -135 22 -177 67c-43 -44 -104 -67 -174 -67c-161 0 -262 95 -262 264c0 171 109 271 268 271c74 0 134 -24 176 -69c43 45 101 69 162 69c141 0 217 -98 217 -228v-57l-295 1c10 -108 62 -144 127 -144
c44 0 86 16 130 45zM301 66c64 0 85 61 85 191c0 132 -27 193 -91 193c-65 0 -86 -61 -86 -193c0 -130 27 -191 92 -191zM635 452c-63 0 -74 -85 -75 -146l138 7v3c0 84 -21 136 -63 136z" />
    <glyph glyph-name="endash" unicode="&#x2013;" horiz-adv-x="560" 
d="M40 235v80h480v-80h-480z" />
    <glyph glyph-name="emdash" unicode="&#x2014;" horiz-adv-x="862" 
d="M40 235v80h782v-80h-782z" />
    <glyph glyph-name="quotedblleft" unicode="&#x201c;" horiz-adv-x="488" 
d="M209 492c0 -49 -36 -88 -91 -88c-58 0 -93 41 -93 90c0 112 99 170 193 195l19 -35s-55 -42 -75 -85c30 -14 47 -44 47 -77zM435 492c0 -49 -36 -88 -91 -88c-58 0 -93 41 -93 90c0 112 99 170 193 195l19 -35s-55 -42 -75 -85c30 -14 47 -44 47 -77z" />
    <glyph glyph-name="quotedblright" unicode="&#x201d;" horiz-adv-x="487" 
d="M53 601c0 49 36 88 91 88c58 0 93 -41 93 -90c0 -112 -99 -170 -193 -195l-19 35s55 42 75 85c-30 14 -47 44 -47 77zM278 601c0 49 36 88 91 88c58 0 93 -41 93 -90c0 -112 -99 -170 -193 -195l-19 35s55 42 75 85c-30 14 -47 44 -47 77z" />
    <glyph glyph-name="quoteleft" unicode="&#x2018;" horiz-adv-x="262" 
d="M209 492c0 -49 -36 -88 -91 -88c-58 0 -93 41 -93 90c0 112 99 170 193 195l19 -35s-55 -42 -75 -85c30 -14 47 -44 47 -77z" />
    <glyph glyph-name="quoteright" unicode="&#x2019;" horiz-adv-x="262" 
d="M53 601c0 49 36 88 91 88c58 0 93 -41 93 -90c0 -112 -99 -170 -193 -195l-19 35s55 42 75 85c-30 14 -47 44 -47 77z" />
    <glyph glyph-name="divide" unicode="&#xf7;" 
d="M188 459c0 37 31 66 66 66s66 -29 66 -66c0 -35 -31 -65 -66 -65s-66 30 -66 65zM40 249v95h428v-95h-428zM188 133c0 37 31 66 66 66s66 -29 66 -66c0 -35 -31 -65 -66 -65s-66 30 -66 65z" />
    <glyph glyph-name="lozenge" unicode="&#x25ca;" horiz-adv-x="501" 
d="M290 336l123 -245h-84l-78 168l-81 -168h-85l124 245l-124 245h85l81 -168l78 168h84zM50 612v67h401v-67h-401zM50 0v67h401v-67h-401z" />
    <glyph glyph-name="ydieresis" unicode="&#xff;" horiz-adv-x="587" 
d="M170 -95c22 0 57 2 89 82l-216 460l-48 22v46h282v-47l-45 -21l105 -268h4l95 269l-40 21v46h196v-46l-51 -22l-172 -438c-53 -134 -128 -186 -221 -186c-29 0 -61 5 -89 16c-15 63 15 134 15 134h83s2 -48 13 -68zM206 593c-39 0 -66 28 -66 64c0 35 27 65 66 65
c38 0 64 -30 64 -65c0 -36 -26 -64 -64 -64zM370 593c-38 0 -65 28 -65 64c0 35 27 65 65 65c39 0 65 -30 65 -65c0 -36 -26 -64 -65 -64z" />
    <glyph glyph-name="Ydieresis" unicode="&#x178;" horiz-adv-x="695" 
d="M191 47l70 22v201l-205 341l-61 22v46h328v-46l-66 -21l133 -238h1l134 238l-65 21v46h240v-46l-62 -22l-197 -340v-202l70 -22v-47h-320v47zM266 757c-39 0 -66 28 -66 64c0 35 27 65 66 65c38 0 64 -30 64 -65c0 -36 -26 -64 -64 -64zM430 757c-38 0 -65 28 -65 64
c0 35 27 65 65 65c39 0 65 -30 65 -65c0 -36 -26 -64 -65 -64z" />
    <glyph glyph-name="fraction" unicode="&#x2044;" 
d="M66 0h-68l446 639h67z" />
    <glyph glyph-name="Euro" unicode="&#x20ac;" horiz-adv-x="681" 
d="M30 344v77h70c39 147 160 228 311 228c82 0 135 -22 183 -22v-79c0 -40 15 -104 15 -104l-56 -16s-49 43 -75 127c-17 8 -36 12 -67 12c-65 0 -111 -49 -129 -146h117v-77h-124v-21v-20h124v-77h-111c24 -79 80 -112 143 -112c86 0 128 45 162 88l38 -23
c-21 -75 -92 -189 -250 -189c-152 0 -260 82 -288 236h-63v77h56v7c0 11 0 23 1 34h-57z" />
    <glyph glyph-name="guilsinglleft" unicode="&#x2039;" horiz-adv-x="333" 
d="M40 232v45l166 186h77l-113 -207l113 -210h-77z" />
    <glyph glyph-name="guilsinglright" unicode="&#x203a;" horiz-adv-x="333" 
d="M293 277v-45l-166 -186h-77l113 210l-113 207h77z" />
    <glyph glyph-name="daggerdbl" unicode="&#x2021;" horiz-adv-x="498" 
d="M40 404v120l174 -33l-35 188h140l-35 -189l174 34v-120l-170 32l31 -96l-32 -98l171 33v-120l-174 33l35 -188h-140l35 188l-174 -33v120l170 -33l-31 98l31 96z" />
    <glyph glyph-name="periodcentered" unicode="&#xb7;" horiz-adv-x="274" 
d="M45 323c0 49 36 88 91 88c58 0 93 -39 93 -88c0 -47 -35 -86 -93 -86c-55 0 -91 39 -91 86z" />
    <glyph glyph-name="quotesinglbase" unicode="&#x201a;" horiz-adv-x="274" 
d="M45 76c0 49 36 88 91 88c58 0 93 -41 93 -90c0 -112 -99 -170 -193 -195l-19 35s55 42 75 85c-30 14 -47 44 -47 77z" />
    <glyph glyph-name="quotedblbase" unicode="&#x201e;" horiz-adv-x="499" 
d="M45 76c0 49 36 88 91 88c58 0 93 -41 93 -90c0 -112 -99 -170 -193 -195l-19 35s55 42 75 85c-30 14 -47 44 -47 77zM270 76c0 49 36 88 91 88c58 0 93 -41 93 -90c0 -112 -99 -170 -193 -195l-19 35s55 42 75 85c-30 14 -47 44 -47 77z" />
    <glyph glyph-name="perthousand" unicode="&#x2030;" horiz-adv-x="1070" 
d="M261 0h-88l315 639h87zM195 649c85 0 141 -56 141 -162c0 -104 -58 -166 -144 -166s-142 58 -142 161c0 105 58 167 145 167zM195 371c23 0 32 41 32 113c0 74 -11 116 -35 116s-33 -42 -33 -116c0 -72 11 -113 36 -113zM560 318c85 0 141 -56 141 -162
c0 -104 -58 -166 -144 -166s-142 58 -142 161c0 105 58 167 145 167zM560 40c23 0 32 41 32 113c0 74 -11 116 -35 116s-33 -42 -33 -116c0 -72 11 -113 36 -113zM879 318c85 0 141 -56 141 -162c0 -104 -58 -166 -144 -166s-142 58 -142 161c0 105 58 167 145 167zM879 40
c23 0 32 41 32 113c0 74 -11 116 -35 116s-33 -42 -33 -116c0 -72 11 -113 36 -113z" />
    <glyph glyph-name="Acircumflex" unicode="&#xc2;" horiz-adv-x="735" 
d="M304 679l121 10l255 -621l60 -22v-46h-323v46l66 21l-53 134h-210l-51 -134l65 -21v-46h-239v46l63 22zM403 270l-76 196h-7l-74 -196h157zM341 905h46l137 -140l-35 -40l-125 74l-125 -74l-35 40z" />
    <glyph glyph-name="Ecircumflex" unicode="&#xca;" horiz-adv-x="660" 
d="M304 905h46l137 -140l-35 -40l-125 74l-125 -74l-35 40zM110 610l-70 22v47h556v-56c0 -45 11 -125 11 -125l-50 -10s-36 42 -59 115h-208v-222l169 2l20 47h53v-168h-49l-23 47l-170 2v-235h231c23 73 59 125 59 125l50 -10s-11 -90 -11 -135v-56h-579v47l70 22v541z
" />
    <glyph glyph-name="Aacute" unicode="&#xc1;" horiz-adv-x="735" 
d="M304 679l121 10l255 -621l60 -22v-46h-323v46l66 21l-53 134h-210l-51 -134l65 -21v-46h-239v46l63 22zM403 270l-76 196h-7l-74 -196h157zM437 914h19l73 -85l-184 -94l-35 40z" />
    <glyph glyph-name="Edieresis" unicode="&#xcb;" horiz-adv-x="660" 
d="M248 757c-39 0 -66 28 -66 64c0 35 27 65 66 65c38 0 64 -30 64 -65c0 -36 -26 -64 -64 -64zM412 757c-38 0 -65 28 -65 64c0 35 27 65 65 65c39 0 65 -30 65 -65c0 -36 -26 -64 -65 -64zM110 610l-70 22v47h556v-56c0 -45 11 -125 11 -125l-50 -10s-36 42 -59 115h-208
v-222l169 2l20 47h53v-168h-49l-23 47l-170 2v-235h231c23 73 59 125 59 125l50 -10s-11 -90 -11 -135v-56h-579v47l70 22v541z" />
    <glyph glyph-name="Egrave" unicode="&#xc8;" horiz-adv-x="660" 
d="M110 610l-70 22v47h556v-56c0 -45 11 -125 11 -125l-50 -10s-36 42 -59 115h-208v-222l169 2l20 47h53v-168h-49l-23 47l-170 2v-235h231c23 73 59 125 59 125l50 -10s-11 -90 -11 -135v-56h-579v47l70 22v541zM258 914h19l127 -139l-35 -40l-184 94z" />
    <glyph glyph-name="Iacute" unicode="&#xcd;" horiz-adv-x="400" 
d="M110 610l-70 22v47h320v-47l-70 -22v-541l70 -22v-47h-320v47l70 22v541zM286 914h19l73 -85l-184 -94l-35 40z" />
    <glyph glyph-name="Icircumflex" unicode="&#xce;" horiz-adv-x="400" 
d="M110 610l-70 22v47h320v-47l-70 -22v-541l70 -22v-47h-320v47l70 22v541zM174 905h46l137 -140l-35 -40l-125 74l-125 -74l-35 40z" />
    <glyph glyph-name="Idieresis" unicode="&#xcf;" horiz-adv-x="400" 
d="M110 610l-70 22v47h320v-47l-70 -22v-541l70 -22v-47h-320v47l70 22v541zM118 757c-39 0 -66 28 -66 64c0 35 27 65 66 65c38 0 64 -30 64 -65c0 -36 -26 -64 -64 -64zM282 757c-38 0 -65 28 -65 64c0 35 27 65 65 65c39 0 65 -30 65 -65c0 -36 -26 -64 -65 -64z" />
    <glyph glyph-name="Igrave" unicode="&#xcc;" horiz-adv-x="400" 
d="M110 610l-70 22v47h320v-47l-70 -22v-541l70 -22v-47h-320v47l70 22v541zM116 914h19l127 -139l-35 -40l-184 94z" />
    <glyph glyph-name="Oacute" unicode="&#xd3;" horiz-adv-x="753" 
d="M458 914h19l73 -85l-184 -94l-35 40zM379 689c196 0 334 -125 334 -346c0 -220 -145 -353 -338 -353c-196 0 -335 124 -335 343c0 223 145 356 339 356zM370 608c-103 0 -140 -100 -140 -270c0 -168 54 -267 154 -267c102 0 139 99 139 267c0 170 -54 270 -153 270z" />
    <glyph glyph-name="Ocircumflex" unicode="&#xd4;" horiz-adv-x="753" 
d="M350 905h46l137 -140l-35 -40l-125 74l-125 -74l-35 40zM379 689c196 0 334 -125 334 -346c0 -220 -145 -353 -338 -353c-196 0 -335 124 -335 343c0 223 145 356 339 356zM370 608c-103 0 -140 -100 -140 -270c0 -168 54 -267 154 -267c102 0 139 99 139 267
c0 170 -54 270 -153 270z" />
    <glyph glyph-name="apple" horiz-adv-x="1471" 
d="M706 320c22 0 40 -18 40 -51c0 -39 -25 -68 -87 -68v-40l3 -32c-3 -1 -20 -8 -32 -8c-6 0 -11 2 -11 8v75l-25 -3v-3c0 -37 -14 -79 -68 -79c-31 0 -41 19 -41 34c0 33 41 46 70 53v42c-5 -14 -19 -48 -46 -48c-22 0 -28 14 -28 31v3c-8 -14 -23 -33 -53 -33
c-18 0 -29 12 -29 30v101l-29 -2v4c0 7 1 20 12 20h17l-3 30c3 1 20 8 32 8c6 0 11 -2 11 -8v-29h47v-3c0 -8 -1 -21 -12 -21h-35v-86c0 -8 2 -16 13 -16s29 11 29 26v25l-3 33c3 1 20 8 32 8c6 0 11 -3 11 -9v-66c0 -5 0 -15 7 -15c9 0 27 30 26 48l-2 34c3 1 20 8 31 8
c6 0 11 -3 11 -9v-99l25 3v61l-3 36c3 1 20 8 32 8c6 0 11 -3 11 -9v-40c5 14 19 48 47 48zM375 289v-49l3 -32c-3 -1 -20 -8 -31 -8c-6 0 -11 2 -11 8v66c0 6 0 16 -8 16s-27 -30 -26 -48l2 -34c-3 -1 -20 -8 -31 -8c-6 0 -11 2 -11 8v66c0 6 0 16 -8 16
c-9 0 -26 -30 -26 -48l3 -34c-3 -1 -20 -8 -32 -8c-6 0 -11 2 -11 8v69l-3 36c3 1 20 8 32 8c6 0 11 -3 11 -9v-40c4 14 19 49 45 49c22 0 29 -15 29 -32v-17c4 14 18 49 45 49c22 0 28 -15 28 -32zM1208 332l-29 -2v4c0 7 1 20 12 20h17l-3 30c3 1 20 8 32 8
c6 0 11 -2 11 -8v-29h47v-3c0 -8 -1 -21 -12 -21h-35v-90c0 -8 3 -15 16 -15c24 0 50 11 85 11c13 0 62 -5 62 -24c0 -22 -20 -28 -27 -28c-10 0 -37 24 -71 24c-18 0 -42 -8 -76 -8c-33 0 -26 16 -29 131zM64 529v8h1338v-8h-1338zM64 0v8h1338v-8h-1338zM1066 289v-49
l2 -32c-3 -1 -20 -8 -31 -8c-6 0 -11 2 -11 8v67c0 4 0 15 -8 15c-9 0 -26 -30 -26 -48l3 -34c-3 -1 -20 -8 -32 -8c-6 0 -11 2 -11 8v69l-3 36c3 1 20 8 32 8c6 0 11 -3 11 -9v-40c5 14 19 49 45 49c22 0 29 -15 29 -32zM145 258c-16 -6 -33 -6 -44 -6c1 -14 12 -22 26 -22
c12 0 22 3 32 9c6 -4 8 -11 8 -16s-6 -23 -47 -23c-38 0 -60 22 -60 53c0 34 24 68 69 68c28 0 41 -17 41 -31c0 -16 -7 -26 -25 -32zM844 258c-16 -6 -33 -6 -44 -6c1 -14 12 -22 26 -22c12 0 22 3 32 9c6 -4 8 -11 8 -16s-6 -23 -47 -23c-38 0 -60 22 -60 53
c0 34 24 68 69 68c28 0 41 -17 41 -31c0 -16 -7 -26 -25 -32zM1167 258c-16 -6 -33 -6 -44 -6c1 -14 12 -22 26 -22c12 0 22 3 32 9c6 -4 8 -11 8 -16s-6 -23 -47 -23c-38 0 -60 22 -60 53c0 34 24 68 69 68c28 0 41 -17 41 -31c0 -16 -7 -26 -25 -32zM659 219
c22 3 45 14 45 51c0 10 -3 20 -13 20c-19 0 -32 -38 -32 -48v-23zM909 250c14 0 26 -10 26 -24c0 -13 -12 -23 -26 -23s-25 10 -25 23c0 14 11 24 25 24zM554 194c-13 -3 -41 -12 -41 -32c0 -10 7 -14 14 -14c22 0 26 26 27 46zM100 264c18 0 37 6 37 21c0 4 -1 13 -13 13
c-14 0 -22 -18 -24 -34zM1122 264c18 0 37 6 37 21c0 4 -1 13 -13 13c-14 0 -22 -18 -24 -34zM799 264c18 0 37 6 37 21c0 4 -1 13 -13 13c-14 0 -22 -18 -24 -34z" />
    <glyph glyph-name="Ograve" unicode="&#xd2;" horiz-adv-x="753" 
d="M379 689c196 0 334 -125 334 -346c0 -220 -145 -353 -338 -353c-196 0 -335 124 -335 343c0 223 145 356 339 356zM370 608c-103 0 -140 -100 -140 -270c0 -168 54 -267 154 -267c102 0 139 99 139 267c0 170 -54 270 -153 270zM290 914h19l127 -139l-35 -40l-184 94z
" />
    <glyph glyph-name="Uacute" unicode="&#xda;" horiz-adv-x="780" 
d="M506 914h19l73 -85l-184 -94l-35 40zM575 187v423l-70 22v47h250v-47l-70 -22v-478c-44 -83 -129 -142 -280 -142s-261 56 -305 149v471l-70 22v47h320v-47l-70 -22v-423c0 -79 64 -116 147 -116c81 0 148 35 148 116z" />
    <glyph glyph-name="Ucircumflex" unicode="&#xdb;" horiz-adv-x="780" 
d="M405 905h46l137 -140l-35 -40l-125 74l-125 -74l-35 40zM575 187v423l-70 22v47h250v-47l-70 -22v-478c-44 -83 -129 -142 -280 -142s-261 56 -305 149v471l-70 22v47h320v-47l-70 -22v-423c0 -79 64 -116 147 -116c81 0 148 35 148 116z" />
    <glyph glyph-name="Ugrave" unicode="&#xd9;" horiz-adv-x="780" 
d="M575 187v423l-70 22v47h250v-47l-70 -22v-478c-44 -83 -129 -142 -280 -142s-261 56 -305 149v471l-70 22v47h320v-47l-70 -22v-423c0 -79 64 -116 147 -116c81 0 148 35 148 116zM332 914h19l127 -139l-35 -40l-184 94z" />
    <glyph glyph-name="dotlessi" unicode="&#x131;" horiz-adv-x="352" 
d="M265 525v-456l62 -22v-47h-292v47l62 22v352l-63 11v50l164 43h67z" />
    <glyph glyph-name="circumflex" unicode="&#x2c6;" horiz-adv-x="377" 
d="M165 741h46l137 -140l-35 -40l-125 74l-125 -74l-35 40z" />
    <glyph glyph-name="tilde" unicode="&#x2dc;" horiz-adv-x="500" 
d="M431 719c-12 -46 -43 -127 -103 -127c-62 0 -100 42 -157 45c-15 -8 -31 -24 -54 -58l-48 18c16 48 61 129 123 129c64 0 95 -39 148 -41c18 10 36 36 44 53z" />
    <glyph glyph-name="macron" unicode="&#xaf;" horiz-adv-x="348" 
d="M57 600v88h234v-88h-234z" />
    <glyph glyph-name="breve" unicode="&#x2d8;" horiz-adv-x="330" 
d="M166 662c39 0 61 24 69 49l62 -15c-12 -60 -54 -116 -132 -116s-120 56 -132 116l70 19c8 -27 27 -53 63 -53z" />
    <glyph glyph-name="dotaccent" unicode="&#x2d9;" horiz-adv-x="240" 
d="M28 649c0 49 36 88 91 88c58 0 93 -39 93 -88c0 -47 -35 -86 -93 -86c-55 0 -91 39 -91 86z" />
    <glyph glyph-name="ring" unicode="&#x2da;" horiz-adv-x="313" 
d="M158 733c73 0 123 -28 123 -81c0 -54 -53 -84 -125 -84c-74 0 -124 29 -124 81c0 54 53 84 126 84zM160 608c27 0 39 15 39 42c0 29 -17 44 -45 44s-40 -15 -40 -44c0 -27 17 -42 46 -42z" />
    <glyph glyph-name="cedilla" unicode="&#xb8;" horiz-adv-x="280" 
d="M192 15l-32 -51c56 -3 95 -17 95 -61c0 -49 -47 -80 -126 -80c-43 0 -80 13 -104 31l21 37c16 -9 41 -21 70 -21c22 0 36 9 36 23c0 22 -32 27 -83 35v4l52 83h71z" />
    <glyph glyph-name="hungarumlaut" unicode="&#x2dd;" horiz-adv-x="387" 
d="M135 749h16l73 -71l-176 -108l-30 27zM157 601l163 129l49 -76v-28l-183 -55z" />
    <glyph glyph-name="ogonek" unicode="&#x2db;" horiz-adv-x="290" 
d="M242 -80l-10 -58c-20 -18 -62 -39 -105 -39c-53 0 -96 23 -96 86c0 70 87 115 155 134l72 -19c-60 -15 -115 -45 -115 -82c0 -28 23 -35 49 -35c17 0 35 5 50 13z" />
    <glyph glyph-name="caron" unicode="&#x2c7;" horiz-adv-x="377" 
d="M211 571h-46l-137 140l35 40l125 -74l125 74l35 -40z" />
    <glyph glyph-name="zero.tab" horiz-adv-x="590" 
d="M297 649c161 0 265 -113 265 -326c0 -208 -108 -333 -269 -333c-162 0 -266 115 -266 323c0 211 109 336 270 336zM297 70c62 0 87 91 87 248c0 159 -29 253 -91 253c-63 0 -88 -94 -88 -253c0 -157 29 -248 92 -248z" />
    <glyph glyph-name="one.tab" horiz-adv-x="590" 
d="M222 75v445h-10c-103 0 -143 10 -143 10v45s157 14 264 75l63 -15v-559l133 -29v-47h-437v47z" />
    <glyph glyph-name="two.tab" horiz-adv-x="590" 
d="M98 441l-51 37c29 67 116 171 267 171c129 0 211 -75 211 -191c0 -140 -159 -253 -318 -352v-5h241c23 58 64 95 64 95l44 -14s-12 -70 -12 -111v-71h-502l-9 66c103 83 314 241 314 380c0 58 -39 84 -88 84c-68 0 -123 -34 -161 -89z" />
    <glyph glyph-name="three.tab" horiz-adv-x="590" 
d="M222 370c66 5 121 22 121 97c0 54 -45 76 -97 76c-59 0 -120 -33 -151 -65l-38 32c29 68 118 139 248 139c133 0 209 -64 209 -154c0 -72 -65 -115 -126 -136v-3c80 -21 158 -69 158 -161c0 -129 -105 -205 -256 -205c-97 0 -198 29 -237 57c0 76 33 125 40 131h58
s0 -58 14 -89c17 -9 52 -23 98 -23c61 0 105 34 105 115c0 99 -79 119 -161 129z" />
    <glyph glyph-name="four.tab" horiz-adv-x="590" 
d="M20 156v59l306 424h164v-403h76v-80h-76v-87l70 -22v-47h-324v47l80 22v87h-296zM313 488l-179 -252h182v252h-3z" />
    <glyph glyph-name="five.tab" horiz-adv-x="590" 
d="M109 639h379l-12 -130h-291l-7 -111c27 2 54 3 76 3c147 0 276 -53 276 -192c0 -148 -113 -219 -278 -219c-89 0 -163 29 -193 57c0 76 33 125 40 131h58s0 -58 14 -89c11 -7 36 -24 78 -24c59 0 106 35 106 126c0 86 -81 107 -155 107c-33 0 -72 -3 -101 -11l-10 10z
" />
    <glyph glyph-name="six.tab" horiz-adv-x="590" 
d="M530 572l-30 -47s-45 36 -124 36c-115 0 -150 -96 -161 -184c29 19 66 31 115 31c136 0 226 -74 226 -197c0 -139 -120 -221 -256 -221c-174 0 -267 91 -267 291c0 229 112 368 304 368c131 0 193 -75 193 -77zM293 318c-35 0 -62 -11 -83 -29v-1c0 -167 26 -222 94 -222
c46 0 76 48 76 136c0 87 -32 116 -87 116z" />
    <glyph glyph-name="seven.tab" horiz-adv-x="590" 
d="M539 639v-100l-276 -539h-131v34l297 485h-257c-19 -52 -61 -103 -61 -103l-52 11s11 96 11 141v71h469z" />
    <glyph glyph-name="eight.tab" horiz-adv-x="590" 
d="M42 157c0 54 31 119 120 150c-56 40 -89 96 -89 167c0 114 103 174 223 174c140 0 215 -70 215 -150c0 -71 -45 -110 -103 -132c102 -50 143 -110 143 -186c0 -109 -95 -190 -256 -190c-141 0 -253 44 -253 167zM325 233l-96 39c-30 -31 -39 -70 -39 -114
c0 -50 39 -91 109 -91c65 0 97 34 97 88c0 30 -20 57 -71 78zM222 497c0 -32 18 -58 53 -73l60 -26c19 20 35 48 35 94c0 37 -24 81 -75 81c-50 0 -73 -32 -73 -76z" />
    <glyph glyph-name="nine.tab" horiz-adv-x="590" 
d="M59 67l30 47s45 -36 124 -36c114 0 150 95 161 183c-30 -19 -67 -30 -115 -30c-136 0 -226 74 -226 197c0 139 120 221 256 221c174 0 267 -86 267 -286c0 -229 -112 -373 -304 -373c-131 0 -193 75 -193 77zM296 321c34 0 62 11 83 28v2c0 167 -26 222 -94 222
c-46 0 -76 -48 -76 -136c0 -87 32 -116 87 -116z" />
    </font>
</defs>
</svg>
