<svg width="368" height="64" viewBox="0 0 368 64" fill="none" xmlns="http://www.w3.org/2000/svg">
<path d="M166.705 0.0107422C178.435 0.0108278 183.402 3.9725 185.802 3.97266C187.514 3.97266 188.458 2.1594 189.227 0.0107422H190.939L193.937 18.251H192.225C186.741 11.9968 178.777 4.63394 167.474 4.63379C154.372 4.63379 144.349 14.0427 144.349 28.9814C144.349 45.1575 155.055 57.3711 171.415 57.3711C178.977 57.247 186.357 55.0485 192.741 51.0186L193.686 52.998C189.961 56.6496 185.526 59.5061 180.651 61.3936C175.777 63.2809 170.567 64.1589 165.339 63.9736C161.052 64.1504 156.774 63.4332 152.783 61.8672C148.792 60.3012 145.176 57.9215 142.166 54.8818C139.156 51.8421 136.821 48.2092 135.31 44.2178C133.798 40.2262 133.145 35.9638 133.392 31.7061C133.47 27.4464 134.396 23.2443 136.115 19.3418C137.835 15.4391 140.315 11.9129 143.411 8.9668C146.507 6.02079 150.16 3.7129 154.157 2.17578C158.155 0.638663 162.42 -0.0972257 166.705 0.0107422ZM224.665 1.07227C229.527 1.07227 232.409 2.50822 235.92 2.95703V5.83008C235.92 9.77947 236.28 14.1778 236.64 16.332L235.47 16.8701C233.759 15.2544 230.788 10.7666 229.798 4.75293C228.537 4.1246 227.006 3.58594 224.665 3.58594C220.434 3.58606 217.463 6.27858 217.463 11.7539C217.463 15.9727 219.893 21.0894 225.476 25.9365C233.759 33.1173 238.711 36.9769 238.711 46.7607C238.711 56.2754 232.228 63.8154 223.135 63.8154C218.363 63.8154 214.131 62.8284 210.17 60.1357V56.9043C210.17 53.0446 209.72 48.6456 209.359 45.5938L210.89 44.9658C212.69 47.1201 215.931 53.4031 216.472 59.417C218.723 61.0327 220.974 61.3027 222.685 61.3027C227.637 61.3027 231.778 57.8909 231.778 49.6328C231.778 44.4269 229.347 40.2083 222.145 34.374C215.392 28.8986 210.62 23.9612 210.62 15.7031C210.62 5.38088 217.552 1.07238 224.665 1.07227ZM253.16 18.9561C260.719 18.9561 264.499 24.9605 264.499 37.4834V40.7422L248.35 40.5713V41.2568C248.35 56.2672 251.528 60.042 255.737 60.042C259.259 60.042 261.235 57.2109 263.297 53.6084L264.241 54.123C262.351 59.2695 259.173 63.8154 253.504 63.8154C245.687 63.8154 240.705 57.7257 240.705 41C240.705 26.0755 246.374 18.9561 253.16 18.9561ZM277.425 21.0146L274.332 22.4727L281.462 50.4346L288.162 22.4727L285.328 21.0146V19.8135H293.574V21.0146L290.739 22.4727L280.604 63.8154H277.511L266.172 22.4727L263.423 21.0146V19.8135H277.425V21.0146ZM352.194 18.9561C358.809 18.9561 363.104 22.4731 363.104 31.3936C363.104 37.9977 362.932 40.2281 362.932 56.5244C362.932 59.2692 363.619 59.9561 364.393 59.9561C365.509 59.9557 366.367 58.5832 366.797 56.7822L368 57.2109C366.712 61.9285 364.564 63.6435 361.386 63.6436C357.864 63.6436 355.803 61.4996 355.459 57.7256C353.655 60.6419 351.077 63.8154 347.126 63.8154C343.948 63.8153 340.255 61.9284 340.255 56.4395V46.6611C344.034 40.7428 351.422 38.2547 355.459 37.1396V30.5352C355.459 22.9015 354.17 21.0146 351.421 21.0146C346.783 21.015 346.182 27.19 346.096 31.4785H343.003C342.23 30.106 341.113 27.2759 340.77 23.7598C343.003 21.1866 347.212 18.9561 352.194 18.9561ZM62.3477 55.9453C62.8006 57.4592 63.7081 58.7996 64.9482 59.7871C66.1883 60.7746 67.702 61.3625 69.2871 61.4717V63.1201H53.8711L47.3633 47.6182H16.958L10.2793 63.1201H0V61.4717C1.58214 61.3277 3.09074 60.7397 4.34961 59.7764C5.60843 58.813 6.56582 57.5137 7.11035 56.0303L29.1201 5.33008C28.0055 3.99182 26.5138 3.01555 24.8369 2.52539V0.863281H39.0527L62.3477 55.9453ZM102.038 0.863281C114.286 0.863281 125.077 6.80019 125.077 17.8389C125.104 20.3068 124.516 22.7434 123.365 24.9307C122.215 27.1178 120.538 28.9876 118.483 30.374C121.506 31.2675 124.15 33.1243 126.007 35.6572C127.864 38.1901 128.832 41.2593 128.763 44.3926C128.763 58.8221 115.917 63.1113 102.299 63.1113H72.918V61.4629C76.6844 60.3103 78.5723 58.657 78.5723 54.5381V9.44043C78.5723 5.31709 76.6889 3.6682 72.918 2.51562V0.863281H102.038ZM303.967 60.2988L307.488 61.7568V62.958H292.714V61.7568L296.235 60.2988V21.4121L303.967 19.876V60.2988ZM319.609 60.2988L323.045 61.7568V62.958H308.356V61.7568L311.792 60.2988V4.03125L308.271 3.25977V2.05859L318.578 0H319.609V60.2988ZM335.172 60.2988L338.607 61.7568V62.958H323.919V61.7568L327.354 60.2988V4.03125L323.833 3.25977V2.05859L334.141 0H335.172V60.2988ZM88.8652 58.4922C92.5473 59.0676 96.2708 59.3438 99.998 59.3184C109.248 59.3183 118.07 56.5976 118.07 45.2998C118.15 43.0231 117.647 40.7632 116.61 38.7314C115.639 36.8268 114.227 35.1802 112.493 33.9258L112.16 33.6934C108.663 34.9131 104.989 35.5543 101.283 35.5918C96.95 35.6429 92.6755 34.5929 88.8652 32.541V58.4922ZM355.459 39.3701C352.882 40.3136 349.531 41.4291 347.728 43.6592V54.9805C347.728 58.4114 349.188 59.1836 350.477 59.1836C352.538 59.1835 354.342 56.9532 355.373 54.9805L355.459 39.3701ZM19.0977 42.6689H45.3047L32.459 11.9111L19.0977 42.6689ZM253.246 21.1006C250.154 21.1007 248.521 25.8179 248.35 38.5977L257.455 37.998V36.2822C257.455 25.389 256.081 21.1006 253.246 21.1006ZM98.627 4.65625C95.3616 4.65092 92.0997 4.87185 88.8652 5.31738V28.3242C92.6168 30.5653 96.9063 31.7611 101.283 31.7861C107.126 31.7861 114.385 29.9719 114.385 19.1699C114.358 9.44035 108.205 4.65628 98.627 4.65625ZM299.93 4.04785C302.335 4.04809 304.311 6.02134 304.311 8.42285C304.31 10.9099 302.335 12.8826 299.93 12.8828C297.439 12.8828 295.463 10.9101 295.463 8.42285C295.463 6.02119 297.439 4.04785 299.93 4.04785Z" fill="black"/>
</svg>
