<svg width="138" height="24" viewBox="0 0 138 24" fill="none" xmlns="http://www.w3.org/2000/svg">
<path d="M0.896029 23V22.566L2.32203 22.039V2.912L0.896029 2.354V1.951H6.72403C10.165 1.951 12.614 4.028 12.614 8.554C12.614 12.801 10.413 15.281 7.90203 15.281C7.40603 15.281 6.84803 15.25 6.22803 14.971V14.506H6.91003C8.61503 14.506 9.57603 12.429 9.57603 8.647C9.57603 4.927 8.46003 2.881 6.47603 2.881H5.26703V22.039L6.97203 22.566V23H0.896029ZM13.4183 23V22.566L14.7513 22.039V8.895L13.3873 8.616V8.182L17.1693 7.19H17.4793V10.073H17.5723C18.2543 8.213 19.3703 7.097 20.7963 7.097C20.9823 7.097 21.3233 7.128 21.5713 7.221C21.5713 8.895 21.2303 10.352 21.0753 11.003H19.7113C19.6493 10.166 19.4943 9.453 19.2463 8.895C18.4093 9.267 17.6963 11.065 17.5723 11.592V22.039L19.1533 22.566V23H13.4183ZM26.5989 23.31C23.7779 23.31 21.9799 21.109 21.9799 15.064C21.9799 9.67 24.0259 7.097 26.4749 7.097C29.2029 7.097 30.5669 9.267 30.5669 13.793V14.971L24.7389 14.909V15.157C24.7389 20.582 25.8859 21.946 27.4049 21.946C28.6759 21.946 29.3889 20.923 30.1329 19.621L30.4739 19.807C29.7919 21.667 28.6449 23.31 26.5989 23.31ZM24.7389 14.196L28.0249 13.979V13.359C28.0249 9.422 27.5289 7.872 26.5059 7.872C25.3899 7.872 24.8009 9.577 24.7389 14.196ZM31.4165 23V22.566L32.6875 22.039V8.895L31.3855 8.616V8.182L35.0745 7.19H35.3845V9.546H35.4775C36.1285 8.275 37.2445 7.097 38.4845 7.097C39.7865 7.097 40.6855 7.934 41.1815 9.701C41.8325 8.554 42.9795 7.097 44.4675 7.097C46.0795 7.097 47.4125 8.151 47.4125 10.724V22.039L48.6525 22.566V23H43.5685V22.566L44.6225 22.039V10.476C44.6225 9.236 44.1265 8.771 43.3515 8.771C42.5765 8.771 41.8945 9.515 41.3985 10.445C41.4295 10.569 41.4295 10.662 41.4295 10.786V22.039L42.4525 22.566V23H37.7095V22.566L38.6395 22.039V10.476C38.6395 9.236 38.1745 8.771 37.4925 8.771C36.6865 8.771 36.0045 9.484 35.4775 10.6V22.039L36.5005 22.566V23H31.4165ZM49.3008 23V22.566L50.5718 22.039V8.895L49.2698 8.616V8.182L52.9898 7.19H53.3618V22.039L54.6328 22.566V23H49.3008ZM51.9048 3.966C51.0058 3.966 50.2928 3.253 50.2928 2.354C50.2928 1.486 51.0058 0.773 51.9048 0.773C52.7728 0.773 53.4858 1.486 53.4858 2.354C53.4858 3.253 52.7728 3.966 51.9048 3.966ZM59.162 23.31C57.612 23.31 56.806 22.318 56.403 21.388V8.895L55.163 8.616V8.182L58.852 7.19H59.193V20.954C59.441 21.357 59.782 21.636 60.402 21.636C61.115 21.636 61.797 20.861 62.386 19.838V8.895L61.084 8.616V8.182L64.742 7.19H65.176V22.039L66.447 22.566V23H62.696L62.51 20.768H62.417C61.766 22.225 60.619 23.31 59.162 23.31ZM67.1779 23V22.566L68.4489 22.039V8.895L67.1469 8.616V8.182L70.8359 7.19H71.1459V9.546H71.2389C71.8899 8.275 73.0059 7.097 74.2459 7.097C75.5479 7.097 76.4469 7.934 76.9429 9.701C77.5939 8.554 78.7409 7.097 80.2289 7.097C81.8409 7.097 83.1739 8.151 83.1739 10.724V22.039L84.4139 22.566V23H79.3299V22.566L80.3839 22.039V10.476C80.3839 9.236 79.8879 8.771 79.1129 8.771C78.3379 8.771 77.6559 9.515 77.1599 10.445C77.1909 10.569 77.1909 10.662 77.1909 10.786V22.039L78.2139 22.566V23H73.4709V22.566L74.4009 22.039V10.476C74.4009 9.236 73.9359 8.771 73.2539 8.771C72.4479 8.771 71.7659 9.484 71.2389 10.6V22.039L72.2619 22.566V23H67.1779Z" fill="#0E3A6F"/>
<path d="M94.9815 23.31C91.4475 23.31 88.8435 20.52 88.8435 12.801C88.8435 4.648 91.7885 1.641 95.5395 1.641C97.1205 1.641 98.1125 2.23 99.0115 2.292V3.315C99.0115 4.679 99.1355 6.167 99.2595 6.88L98.7945 7.097C98.2055 6.539 97.1515 4.958 96.8415 2.974C96.4075 2.664 95.9425 2.509 95.4155 2.509C93.4005 2.509 91.9435 5.144 91.9435 12.491C91.9435 19.559 93.4005 21.729 95.7875 21.729C97.7405 21.729 98.6085 20.055 99.3215 17.978L99.7555 18.102C99.2595 20.582 97.7095 23.31 94.9815 23.31ZM100.491 23V22.566L101.917 22.039V2.912L100.491 2.354V1.951H106.288V2.354L104.862 2.912V22.07H108.985C109.45 20.179 110.256 18.412 110.752 17.575L111.093 17.668C111 18.505 110.907 20.365 110.907 21.977V23H100.491ZM117.832 23.31C115.476 23.31 113.368 22.566 112.5 20.52V2.912L111.074 2.354V1.951H116.871V2.354L115.445 2.912V18.753C115.445 20.83 116.282 22.132 118.328 22.132C120.653 22.132 121.8 20.737 121.8 18.505V2.912L120.374 2.354V1.951H124.249V2.354L122.823 2.912V20.055C122.017 22.132 120.529 23.31 117.832 23.31ZM125.149 23V22.566L126.575 22.039V2.912L125.149 2.354V1.951H130.822C133.922 1.951 136.433 3.16 136.433 7.035C136.433 9.701 135.224 11.282 133.178 11.84V11.933C135.441 12.429 137.022 14.072 137.022 17.296C137.022 21.481 134.418 23 131.442 23H125.149ZM130.946 22.132C132.806 22.132 133.984 20.737 133.984 17.234C133.984 14.165 133.054 12.398 131.225 12.398H129.52V22.132H130.946ZM130.605 11.53C132.465 11.53 133.395 9.98 133.395 7.19C133.395 4.059 132.217 2.819 130.388 2.819H129.52V11.53H130.605Z" fill="#2185FF"/>
</svg>
