<svg width="96" height="33" viewBox="0 0 96 33" fill="none" xmlns="http://www.w3.org/2000/svg">
<path d="M26.5278 31.996L23.323 24.1429H8.35052L5.06166 31.996H0V31.1609C0.77909 31.088 1.52187 30.7901 2.14177 30.3021C2.76168 29.8141 3.23318 29.1559 3.50133 28.4044L14.3395 2.72016C13.7906 2.04213 13.0561 1.54722 12.2303 1.29892V0.457031H19.2308L30.7019 28.3614C30.925 29.1283 31.3717 29.8073 31.9824 30.3076C32.593 30.8079 33.3385 31.1056 34.1191 31.1609V31.996H26.5278ZM9.40401 21.6354H22.3094L15.9839 6.05375L9.40401 21.6354Z" fill="#0E3A6F"/>
<path d="M38.6925 4.80224C38.6925 2.71337 37.7651 1.87828 35.9082 1.29439V0.457031H50.2477C56.2788 0.457031 61.5927 3.46473 61.5927 9.05692C61.606 10.3072 61.3164 11.5413 60.7499 12.6494C60.1834 13.7574 59.3575 14.7049 58.3459 15.4073C59.8343 15.8599 61.136 16.8002 62.0505 18.0834C62.9651 19.3666 63.4419 20.9215 63.4076 22.509C63.4076 29.8189 57.0822 31.9915 50.3761 31.9915H35.9082V31.1564C37.7629 30.5725 38.6925 29.7351 38.6925 27.6485V4.80224ZM48.5679 2.37843C46.9598 2.37573 45.3536 2.48765 43.7607 2.71337V14.3685C45.6082 15.5039 47.7205 16.1097 49.8759 16.1224C52.7531 16.1224 56.3275 15.2036 56.3275 9.73133C56.3142 4.80224 53.2843 2.37843 48.5679 2.37843ZM55.2319 17.0888C53.51 17.7067 51.7006 18.0316 49.8759 18.0506C47.742 18.0765 45.6371 17.5444 43.7607 16.5049V29.6514C45.574 29.9429 47.4074 30.083 49.2429 30.0701C53.7977 30.0701 58.1423 28.6918 58.1423 22.9684C58.1813 21.815 57.9341 20.6703 57.4236 19.641C56.9131 18.6117 56.1561 17.7313 55.2231 17.082L55.2319 17.0888Z" fill="#0E3A6F"/>
<path d="M91.9936 2.03218C92.8369 2.03218 93.3016 1.11335 93.6801 0.0247862H94.5234L95.9996 9.26514H95.1563C92.4562 6.09676 88.5343 2.36712 82.9681 2.36712C76.5165 2.36712 71.581 7.13327 71.581 14.7012C71.581 22.896 76.8529 29.0834 84.9091 29.0834C88.6328 29.0205 92.2671 27.9068 95.4109 25.8652L95.8756 26.8678C94.0418 28.7176 91.8577 30.165 89.4574 31.1212C87.0571 32.0773 84.4912 32.5221 81.9168 32.4283C79.8057 32.5178 77.6997 32.1542 75.7343 31.3609C73.769 30.5675 71.988 29.3621 70.506 27.8221C69.024 26.2822 67.8738 24.4419 67.1296 22.4198C66.3855 20.3977 66.0637 18.2387 66.1852 16.0817C66.2239 13.9237 66.6798 11.7948 67.5266 9.81776C68.3733 7.84069 69.5943 6.05447 71.1191 4.56197C72.6439 3.06948 74.4424 1.90021 76.4111 1.12152C78.3797 0.342824 80.4795 -0.0299096 82.5896 0.0247862C88.3661 0.0247862 90.8118 2.03218 91.9936 2.03218Z" fill="#0E3A6F"/>
</svg>
