<?xml version="1.0" encoding="UTF-8"?>
<svg id="Layer_2" data-name="Layer 2" xmlns="http://www.w3.org/2000/svg" viewBox="0 0 599.68 87.93">
  <defs>
    <style>
      .cls-1 {
        fill: #0f206c;
      }
    </style>
  </defs>
  <g id="Layer_1-2" data-name="Layer 1">
    <g>
      <polygon class="cls-1" points="0 0 22.82 0 44.05 58.31 44.52 58.31 64.48 0 87.61 0 51.97 87.93 35.49 87.93 0 0"/>
      <path class="cls-1" d="M127.21,0c-23.58,0-43.89,19.13-43.89,44.04,0,23.58,19.43,43.74,43.89,43.74,22.84,0,43.6-17.05,43.6-44.04C170.81,18.54,150.49,0,127.21,0Zm10.03,67.42c-2.97,1.44-6.34,2.28-10.03,2.28-2.5,0-4.97-.42-7.32-1.2-10.66-3.11-18.46-12.93-18.46-24.6,0-12.51,8.97-22.91,20.82-25.17,1.7-.42,3.38-.63,4.97-.63,2.34,0,4.65,.41,6.86,1.16,10.75,3.05,18.63,12.92,18.63,24.64,0,10.54-6.36,19.58-15.45,23.52Z"/>
      <path class="cls-1" d="M263.48,58.28c-6.67,18.39-21.95,29.51-41.22,29.51-21.06,0-43.74-16.9-43.74-44.19C178.51,18.39,199.42,0,222.11,0,232.49,0,255.03,4.75,263.48,30.1h-22.24c-2.37-4.15-6.97-12.01-19.13-12.01s-23.87,8.9-23.87,25.8c0,14.09,9.94,25.8,24.76,25.8,6.52,0,13.05-3.11,18.24-11.42h22.24Z"/>
      <path class="cls-1" d="M358.33,42.86c0-20.76-15.57-42.86-42.56-42.86s-43.3,20.91-43.3,44.19,18.39,43.6,43.45,43.6c19.43,0,35-13.79,39.74-28.62h-20.76c-3.71,6.82-10.23,10.53-18.98,10.53-14.09,0-21.8-11.57-22.69-16.9h63.91c.59-2.67,1.19-6.08,1.19-9.94Zm-65.69-5.93c3.71-15.27,15.27-18.83,23.28-18.83,10.53,0,20.02,5.64,22.24,18.83h-45.52Z"/>
      <path class="cls-1" d="M366.43,2.82h18.24v7.12C387.93,6.82,394.75,0,407.21,0,414.33,0,425.15,3.11,431.97,11.42c7.56,9.05,7.56,22.84,7.56,29.21v47.15h-19.72V44.49c0-6.82,0-26.4-16.61-26.4-3.56,0-9.94,1.78-13.49,7.27-3.56,5.04-3.56,13.64-3.56,20.61v41.82h-19.72V2.82Z"/>
      <path class="cls-1" d="M443.34,0V17.5h22.57V59.16c0,15.82,12.8,28.62,28.62,28.62h13.44v-18.76h-13.44c-5.06,0-9.15-4.09-9.15-9.15V17.5h22.59V0"/>
      <path class="cls-1" d="M556.08,0c-23.58,0-43.89,19.13-43.89,44.04,0,23.58,19.43,43.74,43.89,43.74,22.84,0,43.6-17.05,43.6-44.04,0-25.21-20.32-43.74-43.6-43.74Zm1.08,69.69c-.17,0-.34-.02-.52-.03-.19,0-.37,.03-.57,.03-7.81,0-15.33-3.97-19.85-10.77-3.05-4.24-4.86-9.42-4.86-15.03,0-9.33,4.97-17.47,12.38-22,.21-.13,.42-.26,.63-.38,.2-.12,.4-.24,.61-.36,3.66-2.04,7.6-3.06,11.1-3.06,.19,0,.37,.03,.56,.03,.18,0,.35-.03,.52-.03,14.25,0,25.8,11.55,25.8,25.8s-11.55,25.8-25.8,25.8Z"/>
    </g>
  </g>
</svg>